<svg width="312" height="72" viewBox="0 0 312 72" fill="none" xmlns="http://www.w3.org/2000/svg">
<rect width="312" height="72" rx="24" fill="#FFE999"/>
<path d="M43.0767 18.2199C43.4183 17.3986 44.5817 17.3986 44.9233 18.2199L49.0555 28.1549C49.1995 28.5011 49.5251 28.7377 49.8989 28.7677L60.6245 29.6275C61.5112 29.6986 61.8707 30.8051 61.1952 31.3838L53.0234 38.3838C52.7386 38.6277 52.6142 39.0105 52.7012 39.3753L55.1978 49.8417C55.4042 50.7069 54.463 51.3908 53.7039 50.9271L44.5213 45.3184C44.2012 45.1229 43.7988 45.1229 43.4787 45.3184L34.2961 50.9271C33.537 51.3908 32.5958 50.7069 32.8022 49.8417L35.2988 39.3753C35.3858 39.0105 35.2614 38.6277 34.9766 38.3838L26.8048 31.3838C26.1293 30.8051 26.4888 29.6986 27.3755 29.6275L38.1011 28.7677C38.4749 28.7377 38.8005 28.5011 38.9445 28.1549L43.0767 18.2199Z" fill="#FF7A00"/>
<path d="M99.0767 18.2199C99.4183 17.3986 100.582 17.3986 100.923 18.2199L105.056 28.1549C105.2 28.5011 105.525 28.7377 105.899 28.7677L116.625 29.6275C117.511 29.6986 117.871 30.8051 117.195 31.3838L109.023 38.3838C108.739 38.6277 108.614 39.0105 108.701 39.3753L111.198 49.8417C111.404 50.7069 110.463 51.3908 109.704 50.9271L100.521 45.3184C100.201 45.1229 99.7988 45.1229 99.4787 45.3184L90.2961 50.9271C89.537 51.3908 88.5958 50.7069 88.8022 49.8417L91.2988 39.3753C91.3858 39.0105 91.2614 38.6277 90.9766 38.3838L82.8048 31.3838C82.1293 30.8051 82.4888 29.6986 83.3755 29.6275L94.1011 28.7677C94.4749 28.7377 94.8005 28.5011 94.9445 28.1549L99.0767 18.2199Z" fill="#FF7A00"/>
<path d="M155.077 18.2199C155.418 17.3986 156.582 17.3986 156.923 18.2199L161.056 28.1549C161.2 28.5011 161.525 28.7377 161.899 28.7677L172.625 29.6275C173.511 29.6986 173.871 30.8051 173.195 31.3838L165.023 38.3838C164.739 38.6277 164.614 39.0105 164.701 39.3753L167.198 49.8417C167.404 50.7069 166.463 51.3908 165.704 50.9271L156.521 45.3184C156.201 45.1229 155.799 45.1229 155.479 45.3184L146.296 50.9271C145.537 51.3908 144.596 50.7069 144.802 49.8417L147.299 39.3753C147.386 39.0105 147.261 38.6277 146.977 38.3838L138.805 31.3838C138.129 30.8051 138.489 29.6986 139.375 29.6275L150.101 28.7677C150.475 28.7377 150.8 28.5011 150.944 28.1549L155.077 18.2199Z" fill="#FF7A00"/>
<path d="M211.077 18.2199C211.418 17.3986 212.582 17.3986 212.923 18.2199L217.056 28.1549C217.2 28.5011 217.525 28.7377 217.899 28.7677L228.625 29.6275C229.511 29.6986 229.871 30.8051 229.195 31.3838L221.023 38.3838C220.739 38.6277 220.614 39.0105 220.701 39.3753L223.198 49.8417C223.404 50.7069 222.463 51.3908 221.704 50.9271L212.521 45.3184C212.201 45.1229 211.799 45.1229 211.479 45.3184L202.296 50.9271C201.537 51.3908 200.596 50.7069 200.802 49.8417L203.299 39.3753C203.386 39.0105 203.261 38.6277 202.977 38.3838L194.805 31.3838C194.129 30.8051 194.489 29.6986 195.375 29.6275L206.101 28.7677C206.475 28.7377 206.8 28.5011 206.944 28.1549L211.077 18.2199Z" fill="#FF7A00"/>
<path d="M267.077 18.2199C267.418 17.3986 268.582 17.3986 268.923 18.2199L273.056 28.1549C273.2 28.5011 273.525 28.7377 273.899 28.7677L284.625 29.6275C285.511 29.6986 285.871 30.8051 285.195 31.3838L277.023 38.3838C276.739 38.6277 276.614 39.0105 276.701 39.3753L279.198 49.8417C279.404 50.7069 278.463 51.3908 277.704 50.9271L268.521 45.3184C268.201 45.1229 267.799 45.1229 267.479 45.3184L258.296 50.9271C257.537 51.3908 256.596 50.7069 256.802 49.8417L259.299 39.3753C259.386 39.0105 259.261 38.6277 258.977 38.3838L250.805 31.3838C250.129 30.8051 250.489 29.6986 251.375 29.6275L262.101 28.7677C262.475 28.7377 262.8 28.5011 262.944 28.1549L267.077 18.2199Z" fill="#FF7A00"/>
<path fill-rule="evenodd" clip-rule="evenodd" d="M268 45.1718V17.604C268.376 17.604 268.753 17.8093 268.923 18.22L273.056 28.1549C273.2 28.5012 273.525 28.7377 273.899 28.7677L284.625 29.6276C285.511 29.6987 285.871 30.8052 285.195 31.3838L277.023 38.3838C276.739 38.6278 276.614 39.0106 276.701 39.3753L279.198 49.8417C279.323 50.3662 279.026 50.8241 278.604 51H277.846C277.798 50.98 277.751 50.9557 277.704 50.9271L268.521 45.3184C268.361 45.2207 268.181 45.1718 268 45.1718Z" fill="#0A0B0C" fill-opacity="0.3"/>
</svg>
