<svg width="183" height="320" viewBox="0 0 183 320" fill="none" xmlns="http://www.w3.org/2000/svg">
<g clip-path="url(#clip0_252_5959)">
<path opacity="0.3" d="M75.5642 7.91774C81.4147 23.4456 95.7084 33.4627 110.904 32.6842C96.8191 38.44 88.1401 53.5835 89.4461 70.1255C83.5956 54.5976 69.3019 44.5805 54.106 45.359C68.1912 39.6032 76.8702 24.4597 75.5642 7.91774Z" fill="#7260E0"/>
<path opacity="0.3" d="M34.4014 253.403C32.1764 263.726 36.368 274.013 44.7647 278.837C35.2459 277.058 25.3816 282.166 20.3761 291.465C22.601 281.141 18.4095 270.854 10.0127 266.031C19.5316 267.809 29.3959 262.701 34.4014 253.403Z" fill="#7260E0"/>
<path opacity="0.3" d="M74.6808 288.559C73.8537 294.691 76.773 300.508 81.8986 302.941C76.2569 302.338 70.7286 305.773 68.2304 311.434C69.0575 305.302 66.1382 299.485 61.0126 297.052C66.6543 297.655 72.1826 294.22 74.6808 288.559Z" fill="#7260E0"/>
<g opacity="0.7">
<circle cx="60.4121" cy="197.529" r="10.6728" transform="rotate(-14.6997 60.4121 197.529)" fill="white"/>
<path fill-rule="evenodd" clip-rule="evenodd" d="M45.5184 197.838C44.083 192.367 47.4094 186.753 52.948 185.3L96.4049 173.9C101.944 172.447 107.597 175.704 109.032 181.176L113.725 199.063L140.67 172.443C142.562 170.574 145.777 171.428 146.446 173.976L159.889 225.22C160.557 227.769 158.175 230.091 155.61 229.391L119.067 219.427L123.76 237.314C125.195 242.785 121.869 248.398 116.33 249.851L72.873 261.252C67.3344 262.705 61.6809 259.447 60.2456 253.976L45.5184 197.838ZM66.4417 195.878C67.3986 199.526 65.1811 203.268 61.4886 204.237C57.7962 205.205 54.0272 203.034 53.0703 199.386C52.1135 195.739 54.331 191.997 58.0234 191.028C61.7158 190.059 65.4848 192.231 66.4417 195.878Z" fill="url(#paint0_linear_252_5959)"/>
</g>
</g>
<defs>
<linearGradient id="paint0_linear_252_5959" x1="137.021" y1="167.657" x2="46.1847" y2="255.084" gradientUnits="userSpaceOnUse">
<stop stop-color="#FFB900"/>
<stop offset="1" stop-color="#FF8E6A"/>
</linearGradient>
<clipPath id="clip0_252_5959">
<rect width="182.243" height="319.081" fill="white"/>
</clipPath>
</defs>
</svg>
