<svg width="233" height="207" viewBox="0 0 233 207" fill="none" xmlns="http://www.w3.org/2000/svg">
<g clip-path="url(#clip0_252_5972)">
<path opacity="0.3" d="M29.4408 128.074C29.8242 141.223 37.2654 152.248 47.8385 155.332C36.8654 156.278 27.4023 165.625 24.4417 178.442C24.0582 165.293 16.6171 154.268 6.0439 151.184C17.017 150.238 26.4802 140.891 29.4408 128.074Z" fill="#7260E0"/>
<g opacity="0.7">
<circle cx="129.308" cy="103.294" r="47.6644" transform="rotate(12.9208 129.308 103.294)" fill="white"/>
<path fill-rule="evenodd" clip-rule="evenodd" d="M114.795 166.555C149.734 174.571 184.554 152.745 192.57 117.807C200.585 82.8687 178.76 48.048 143.821 40.0327C108.883 32.0174 74.0624 53.8427 66.0471 88.781C58.0318 123.719 79.8571 158.54 114.795 166.555ZM144.98 76.4482C146.125 71.4571 143.007 66.4827 138.016 65.3376C133.025 64.1926 128.05 67.3105 126.905 72.3017L119.058 106.507L148.258 133.056C152.047 136.501 157.911 136.223 161.356 132.434C164.801 128.645 164.522 122.781 160.733 119.336L139.558 100.082L144.98 76.4482Z" fill="url(#paint0_linear_252_5972)"/>
</g>
</g>
<defs>
<linearGradient id="paint0_linear_252_5972" x1="196.337" y1="59.3185" x2="32.3505" y2="88.3073" gradientUnits="userSpaceOnUse">
<stop stop-color="#E7488B"/>
<stop offset="1" stop-color="#F79BC2"/>
</linearGradient>
<clipPath id="clip0_252_5972">
<rect width="232.602" height="206.588" fill="white"/>
</clipPath>
</defs>
</svg>
