<svg width="214" height="174" viewBox="0 0 214 174" fill="none" xmlns="http://www.w3.org/2000/svg">
<g clip-path="url(#clip0_252_5967)">
<path opacity="0.3" d="M18.9905 52.5521C23.2128 63.7587 33.5287 70.9881 44.4957 70.4263C34.3303 74.5802 28.0666 85.5094 29.0092 97.4479C24.7868 86.2413 14.4709 79.0119 3.50396 79.5737C13.6693 75.4198 19.9331 64.4906 18.9905 52.5521Z" fill="#7260E0"/>
<path opacity="0.3" d="M53.0977 27.2376C54.1687 33.2828 58.6854 37.8984 64.2647 38.6494C58.7506 39.7841 54.5637 44.7009 53.913 50.8056C52.842 44.7604 48.3254 40.1448 42.746 39.3938C48.2602 38.2591 52.447 33.3423 53.0977 27.2376Z" fill="#7260E0"/>
<g opacity="0.6">
<path d="M144.702 117.915C172.331 101.963 184.223 70.8331 171.262 48.3843C158.301 25.9354 125.396 20.6685 97.7667 36.6203C70.1373 52.5721 58.2461 83.7021 71.207 106.151C77.2531 116.623 87.6393 123.356 99.8054 125.941L151.122 138.304C153.466 138.869 155.347 136.353 154.141 134.265L144.702 117.915Z" fill="white"/>
<path d="M144.702 117.915C172.331 101.963 184.223 70.8331 171.262 48.3843C158.301 25.9354 125.396 20.6685 97.7667 36.6203C70.1373 52.5721 58.2461 83.7021 71.207 106.151C77.2531 116.623 87.6393 123.356 99.8054 125.941L151.122 138.304C153.466 138.869 155.347 136.353 154.141 134.265L144.702 117.915Z" fill="url(#paint0_linear_252_5967)"/>
<circle cx="95.0606" cy="88.7523" r="7.21871" transform="rotate(-30 95.0606 88.7523)" fill="white"/>
<circle cx="120.066" cy="74.3151" r="7.21871" transform="rotate(-30 120.066 74.3151)" fill="white"/>
<circle cx="145.072" cy="59.8784" r="7.21871" transform="rotate(-30 145.072 59.8784)" fill="white"/>
</g>
</g>
<defs>
<linearGradient id="paint0_linear_252_5967" x1="143.683" y1="17.3593" x2="54.3886" y2="135.648" gradientUnits="userSpaceOnUse">
<stop stop-color="#0078D7"/>
<stop offset="1" stop-color="#63B8FB"/>
</linearGradient>
<clipPath id="clip0_252_5967">
<rect width="213.283" height="173.266" fill="white"/>
</clipPath>
</defs>
</svg>
