<svg width="150" height="144" viewBox="0 0 150 144" fill="none" xmlns="http://www.w3.org/2000/svg">
<path d="M19 23C19 19.134 22.134 16 26 16H124C127.866 16 131 19.134 131 23V121C131 124.866 127.866 128 124 128H26C22.134 128 19 124.866 19 121V23Z" fill="#635BFF"/>
<path d="M69.97 59.1455C69.97 56.4211 72.2054 55.3733 75.9075 55.3733C81.2165 55.3733 87.9225 56.98 93.2315 59.8441V43.4282C87.4336 41.1229 81.7055 40.2148 75.9075 40.2148C61.7271 40.2148 52.2969 47.6194 52.2969 59.9837C52.2969 79.2635 78.8416 76.1899 78.8416 84.5026C78.8416 87.716 76.0474 88.7637 72.1354 88.7637C66.3375 88.7637 58.9331 86.3888 53.0651 83.1754V99.8008C59.5617 102.595 66.128 103.783 72.1354 103.783C86.6651 103.783 96.6545 96.5874 96.6545 84.0835C96.5845 63.2669 69.97 66.9692 69.97 59.1455Z" fill="white"/>
</svg>
