<svg width="150" height="144" viewBox="0 0 150 144" fill="none" xmlns="http://www.w3.org/2000/svg">
<path d="M104.475 42.5273H45.5273V101.475H104.475V42.5273Z" fill="white"/>
<path d="M104.473 127.999L130.999 101.473L117.736 99.4727L104.473 101.473L102.473 114.736L104.473 127.999Z" fill="#EA4335"/>
<path d="M130.999 42.5273H104.473V101.475H130.999V42.5273Z" fill="#FBBC04"/>
<path d="M104.475 101.473H43.5273V127.999H104.475V101.473Z" fill="#34A853"/>
<path d="M19 99.4727V119.157C19 124.042 22.9568 127.999 27.8421 127.999H45.5263V99.4727H19Z" fill="#188038"/>
<path d="M131 42.5263V24.8421C131 19.9568 127.043 16 122.158 16H103V42.5263H131Z" fill="#1967D2"/>
<path d="M104.474 16H27.8421C22.9568 16 19 19.9568 19 24.8421V101.474H45.5263V42.5263H104.474V16Z" fill="#4285F4"/>
<path d="M57.6177 88.2556C55.4145 86.7671 53.8893 84.5935 53.0566 81.7198L58.1703 79.6124C58.6345 81.3808 59.4451 82.7514 60.6019 83.724C61.7514 84.6966 63.1514 85.1756 64.7872 85.1756C66.4598 85.1756 67.8966 84.6671 69.0977 83.6503C70.2988 82.6335 70.903 81.3366 70.903 79.7671C70.903 78.1608 70.2693 76.8492 69.0019 75.8324C67.7345 74.8156 66.143 74.3071 64.2419 74.3071H61.2872V69.245H63.9398C65.5756 69.245 66.9535 68.8029 68.0735 67.9187C69.1935 67.0345 69.7535 65.8261 69.7535 64.2861C69.7535 62.9155 69.2524 61.825 68.2503 61.0071C67.2482 60.1892 65.9809 59.7766 64.4409 59.7766C62.9377 59.7766 61.744 60.1745 60.8598 60.9776C59.9762 61.7829 59.3119 62.7997 58.9293 63.9324L53.8672 61.825C54.5377 59.924 55.7682 58.244 57.5735 56.7924C59.3788 55.3408 61.6851 54.6113 64.4851 54.6113C66.5556 54.6113 68.4198 55.0092 70.0703 55.8124C71.7209 56.6155 73.0177 57.7282 73.9535 59.1429C74.8893 60.565 75.3535 62.1566 75.3535 63.925C75.3535 65.7303 74.9188 67.2556 74.0493 68.5082C73.1798 69.7608 72.1114 70.7187 70.844 71.3892V71.6913C72.4805 72.366 73.902 73.4742 74.9556 74.8966C76.024 76.3335 76.5619 78.0503 76.5619 80.0545C76.5619 82.0587 76.0535 83.8493 75.0367 85.4187C74.0198 86.9882 72.6124 88.2261 70.8293 89.1251C69.0388 90.024 67.0272 90.4808 64.7945 90.4808C62.2082 90.4882 59.8209 89.744 57.6177 88.2556V88.2556ZM89.0293 62.8787L83.4146 66.9387L80.6072 62.6798L90.6798 55.4145H94.5409V89.685H89.0293V62.8787Z" fill="#4285F4"/>
</svg>
