<svg width="150" height="144" viewBox="0 0 150 144" fill="none" xmlns="http://www.w3.org/2000/svg">
<g clip-path="url(#clip0_1341_11337)">
<path d="M15 72C15 52.3965 15 42.5947 18.4388 34.954C22.338 26.2902 29.2621 19.3524 37.9089 15.4455C45.5346 12 55.3564 12 75 12C94.6436 12 104.465 12 112.091 15.4455C120.738 19.3524 127.662 26.2902 131.561 34.954C135 42.5947 135 52.3965 135 72C135 91.6035 135 101.405 131.561 109.046C127.662 117.71 120.738 124.648 112.091 128.554C104.465 132 94.6436 132 75 132C55.3564 132 45.5346 132 37.9089 128.554C29.2621 124.648 22.338 117.71 18.4388 109.046C15 101.405 15 91.6035 15 72Z" fill="url(#paint0_linear_1341_11337)"/>
<path d="M38.3398 56.4097C38.3398 53.5396 40.662 51.2129 43.5265 51.2129H78.4184C85.4495 51.2129 91.1493 56.9239 91.1493 63.9688V87.3546C91.1493 90.2248 88.8272 92.5515 85.9627 92.5515H51.0707C44.0396 92.5515 38.3398 86.8405 38.3398 79.7956V56.4097Z" fill="white"/>
<path d="M93.9785 67.332C93.9785 64.5949 95.163 61.9924 97.2255 60.1978L106.041 52.5272C108.33 50.5352 111.896 52.1645 111.896 55.2025V88.5602C111.896 91.5982 108.33 93.2275 106.041 91.2355L97.2255 83.5649C95.163 81.7703 93.9785 79.1677 93.9785 76.4307V67.332Z" fill="white"/>
</g>
<defs>
<linearGradient id="paint0_linear_1341_11337" x1="75.1179" y1="132" x2="75.1179" y2="12" gradientUnits="userSpaceOnUse">
<stop stop-color="#2E75FB"/>
<stop offset="1" stop-color="#4291FF"/>
</linearGradient>
<clipPath id="clip0_1341_11337">
<rect width="120" height="120" fill="white" transform="translate(15 12)"/>
</clipPath>
</defs>
</svg>
