<svg width="150" height="144" viewBox="0 0 150 144" fill="none" xmlns="http://www.w3.org/2000/svg">
<path d="M84.3574 72.0001L97.688 87.1668L115.613 98.569L118.739 72.0934L115.613 46.209L97.3442 56.2268L84.3574 72.0001Z" fill="#00832D"/>
<path d="M7 96.112V118.668C7 123.824 11.1961 128.001 16.3767 128.001H39.0372L43.7256 110.952L39.0372 96.112L23.4874 91.4453L7 96.112Z" fill="#0066DA"/>
<path d="M39.0372 16L7 47.8889L23.4874 52.5556L39.0372 47.8889L43.6474 33.2511L39.0372 16Z" fill="#E94235"/>
<path d="M39.0372 47.8887H7V96.1109H39.0372V47.8887Z" fill="#2684FC"/>
<path d="M136.086 29.5007L115.614 46.2074V98.5674L136.18 115.352C139.259 117.747 143.76 115.562 143.76 111.665V33.1096C143.76 29.1663 139.157 27.004 136.086 29.5007ZM84.3581 71.9985V96.1096H39.0371V127.998H106.237C111.418 127.998 115.614 123.822 115.614 118.665V98.5674L84.3581 71.9985Z" fill="#00AC47"/>
<path d="M106.237 16H39.0371V47.8889H84.358V72L115.614 46.2244V25.3333C115.614 20.1767 111.418 16 106.237 16Z" fill="#FFBA00"/>
</svg>
