<svg width="150" height="144" viewBox="0 0 150 144" fill="none" xmlns="http://www.w3.org/2000/svg">
<path d="M75 132C108.137 132 135 105.137 135 72C135 38.8629 108.137 12 75 12C41.8629 12 15 38.8629 15 72C15 105.137 41.8629 132 75 132Z" fill="#1A73E8"/>
<path d="M94.7764 102H55.9205C51.2165 102 47.0645 99.1677 47.0645 94.5117V97.9197C47.0645 102.576 51.2165 106.104 55.9205 106.104H94.7764C99.4804 106.104 103.632 102.576 103.632 97.9197V94.5117C103.632 99.1677 99.4804 102 94.7764 102Z" fill="#185ABC"/>
<path d="M74.9991 66.551C67.9671 66.527 62.4231 61.655 62.0391 54.959V57.695C62.0391 64.631 67.8471 70.655 74.9991 70.655C82.1511 70.655 87.9591 64.631 87.9591 57.695V54.959C87.4071 61.703 82.0311 66.575 74.9991 66.551Z" fill="#185ABC"/>
<path d="M74.9991 74.7383C61.3191 74.7383 47.0391 81.4103 47.0391 90.4103V94.4903C47.0391 99.1463 50.8551 102.674 55.5591 102.674H95.087C99.791 102.674 103.607 99.1463 103.607 94.4903V90.4103C103.631 81.3863 88.679 74.7383 74.9991 74.7383Z" fill="white"/>
<path d="M74.9991 67.2247C82.1567 67.2247 87.9591 61.4223 87.9591 54.2647C87.9591 47.1071 82.1567 41.3047 74.9991 41.3047C67.8415 41.3047 62.0391 47.1071 62.0391 54.2647C62.0391 61.4223 67.8415 67.2247 74.9991 67.2247Z" fill="white"/>
</svg>
