<svg width="150" height="144" viewBox="0 0 150 144" fill="none" xmlns="http://www.w3.org/2000/svg">
<path d="M15 37.5536C15 28.7043 15 24.2797 16.6948 20.8878C18.2504 17.7746 20.7746 15.2504 23.8878 13.6948C27.2797 12 31.7043 12 40.5536 12H109.446C118.296 12 122.72 12 126.112 13.6948C129.225 15.2504 131.75 17.7746 133.305 20.8878C135 24.2797 135 28.7043 135 37.5536V106.446C135 115.296 135 119.72 133.305 123.112C131.75 126.225 129.225 128.75 126.112 130.305C122.72 132 118.296 132 109.446 132H40.5536C31.7043 132 27.2797 132 23.8878 130.305C20.7746 128.75 18.2504 126.225 16.6948 123.112C15 119.72 15 115.296 15 106.446V37.5536Z" fill="#EEEEEE"/>
<path d="M100.772 54.6797C100 55 99.5878 55.0417 99.5 55.5C96.4819 70.983 83.194 73.8522 70.0066 73.8522H63.2922C61.6794 73.8522 60.3204 75.0224 60.0691 76.6119L60.6314 101.397L59.6579 107.572C59.4944 108.615 60.2995 109.556 61.3536 109.556H73.2625C74.6727 109.556 75.8707 108.532 76.0927 107.143L76.2098 106.538L78.4521 92.3206L78.596 91.5404C78.8156 90.146 80.016 89.1221 81.4262 89.1221H83.2073C94.7454 89.1221 103.778 84.4413 106.418 70.8965C107.52 65.2381 106.95 60.5135 104.031 57.1907C103.148 56.1887 102.053 55.3574 100.772 54.6797Z" fill="#179BD7"/>
<path d="M97.6135 50.4262C97.1523 50.2921 96.6766 50.1702 96.1886 50.0605C95.6982 49.9532 95.1956 49.8581 94.6783 49.7753C92.868 49.4827 90.8844 49.3438 88.7593 49.3438H67.8215C67.3798 49.3438 66.9602 49.4437 66.5844 49.6241C65.7573 50.0215 65.1425 50.804 64.9937 51.7621L61.1777 78.9118L64.0679 79.6163C64.3192 78.0268 65.6782 76.8566 67.291 76.8566H74.0055C87.1929 76.8566 97.5183 71.5055 100.536 56.0249C100.627 55.5666 100.702 55.1205 100.771 54.6841C100.002 53 99.1799 50.9332 98.2893 50.6383C98.0697 50.5651 97.8428 50.4944 97.6135 50.4262Z" fill="#222D65"/>
<path d="M67.9938 54.7595C68.1427 53.8014 68.7575 53.0188 69.5846 52.6239C69.9628 52.4435 70.38 52.3435 70.8216 52.3435H88.7594C90.8845 52.3435 92.8681 52.4825 94.6785 52.775C95.1958 52.8579 95.6984 52.953 96.1888 53.0603C96.6767 53.17 97.1525 53.2919 97.6137 53.4259C97.843 53.4942 98.0699 53.5649 98.2919 53.6356C99.1825 53.9306 100.01 54.2792 100.773 54.6815C101.671 48.9598 100.766 45.064 97.6698 41.5364C94.2564 37.6529 88.0958 35.9902 80.2126 35.9902H57.3268C55.7165 35.9902 54.3429 37.1604 54.094 38.7524L44.5615 99.1264C44.3736 100.321 45.2959 101.399 46.5012 101.399H60.6304L64.1779 78.9091L67.9938 54.7595Z" fill="#253B80"/>
</svg>
