<svg width="146" height="46" viewBox="0 0 146 46" fill="none" xmlns="http://www.w3.org/2000/svg">
<g clip-path="url(#clip0_5301_1129)">
<path d="M7 19.2995H19.035H26.3435V12.3408L7 19.2995Z" fill="#FF9D28"/>
<path d="M26.3438 12.3411V36.9382L35.4903 9.06152L26.3438 12.3411Z" fill="#68C5ED"/>
<path d="M26.3437 19.2998H19.0352L26.3437 36.9172V19.2998Z" fill="#044D80"/>
<path d="M7 19.2998L20.9168 23.8198L19.035 19.2998H7Z" fill="#E54747"/>
<path d="M51.3324 30.442C51.223 30.5471 51.0479 30.6733 50.8072 30.8204C50.5665 30.9676 50.2383 31.1358 49.8444 31.2829C49.4506 31.4301 48.9692 31.5772 48.3784 31.6824C47.8094 31.7875 47.153 31.8506 46.409 31.8506C44.9867 31.8506 43.7394 31.6193 42.6891 31.1988C41.6388 30.7573 40.7854 30.1477 40.1071 29.3488C39.4287 28.5499 38.9254 27.6249 38.6191 26.5527C38.2909 25.4805 38.1377 24.2822 38.1377 22.9998C38.1377 21.7174 38.3128 20.5191 38.6629 19.4259C39.013 18.3327 39.5162 17.3866 40.2165 16.5877C40.8948 15.7889 41.7701 15.1582 42.7985 14.7167C43.8269 14.2752 45.0523 14.0439 46.4528 14.0439C47.1311 14.0439 47.7657 14.107 48.3127 14.2121C48.8597 14.3383 49.363 14.4644 49.7788 14.6326C50.1945 14.8008 50.5446 14.969 50.8072 15.1372C51.0917 15.3053 51.2886 15.4735 51.4199 15.5786C51.5731 15.7048 51.7263 15.873 51.8357 16.0622C51.9451 16.2514 52.0107 16.4616 52.0107 16.6718C52.0107 17.0082 51.8794 17.3446 51.6168 17.6809C51.3543 18.0173 51.0698 18.3327 50.7416 18.627C50.5228 18.4168 50.2821 18.2065 50.0195 17.9963C49.7569 17.7861 49.4506 17.5969 49.1223 17.4287C48.7941 17.2605 48.4221 17.1344 48.0064 17.0292C47.5906 16.9241 47.1311 16.861 46.6059 16.861C45.7088 16.861 44.9429 17.0292 44.3302 17.3866C43.7175 17.744 43.2361 18.1855 42.8642 18.7531C42.4922 19.3208 42.2296 19.9514 42.0764 20.6662C41.9232 21.381 41.8357 22.1168 41.8357 22.8737C41.8357 23.6725 41.9232 24.4294 42.0764 25.1652C42.2296 25.901 42.514 26.5317 42.9079 27.0993C43.3018 27.6669 43.8051 28.1084 44.4396 28.4448C45.0742 28.7812 45.8401 28.9494 46.781 28.9494C47.2843 28.9494 47.7219 28.8863 48.1377 28.7812C48.5534 28.655 48.9254 28.5079 49.2317 28.3397C49.56 28.1715 49.8225 27.9823 50.0632 27.8141C50.3039 27.6249 50.5009 27.4567 50.6541 27.3306C50.7635 27.4567 50.8729 27.6039 51.026 27.7721C51.1792 27.9402 51.3105 28.1295 51.4199 28.2976C51.5512 28.4868 51.6387 28.6761 51.7481 28.8653C51.8357 29.0545 51.8794 29.2227 51.8794 29.3698C51.8794 29.6011 51.8357 29.7693 51.7481 29.9374C51.6606 30.0846 51.5074 30.2528 51.3324 30.442ZM64.9866 28.4869C64.9866 29.8323 65.1835 30.8204 65.5993 31.4301C65.2711 31.5562 64.9866 31.6403 64.7021 31.6824C64.4177 31.7244 64.1332 31.7665 63.8269 31.7665C63.1923 31.7665 62.7109 31.6403 62.3827 31.4091C62.0544 31.1778 61.8356 30.8204 61.7481 30.3789C61.3542 30.7784 60.8509 31.1147 60.1945 31.388C59.5599 31.6613 58.7722 31.7875 57.8531 31.7875C57.3717 31.7875 56.8903 31.7244 56.409 31.5983C55.9276 31.4721 55.4899 31.2619 55.096 30.9676C54.7022 30.6733 54.3958 30.2948 54.1333 29.8113C53.8926 29.3278 53.7613 28.7391 53.7613 28.0454C53.7613 27.1834 53.9801 26.4686 54.4177 25.922C54.8553 25.3754 55.4024 24.955 56.0588 24.6396C56.7153 24.3243 57.4374 24.114 58.1814 23.9879C58.9472 23.8618 59.6474 23.7987 60.282 23.7566C60.5008 23.7356 60.6978 23.7356 60.9166 23.7356H61.4855V23.2731C61.4855 22.6214 61.3105 22.1589 60.9385 21.8646C60.5665 21.5913 59.9757 21.4441 59.166 21.4441C58.4002 21.4441 57.7219 21.5702 57.131 21.8015C56.5402 22.0327 55.9494 22.306 55.3805 22.6214C55.1398 22.3271 54.921 22.0117 54.7897 21.6543C54.6365 21.2969 54.5709 21.0447 54.5709 20.8765C54.5709 20.6452 54.7022 20.414 54.9866 20.1827C55.2711 19.9515 55.6431 19.7622 56.1245 19.573C56.6059 19.3838 57.1529 19.2577 57.7875 19.1315C58.4002 19.0264 59.0566 18.9634 59.7569 18.9634C60.7197 18.9634 61.5293 19.0475 62.1857 19.2367C62.8422 19.4259 63.3892 19.7202 63.805 20.0986C64.2207 20.498 64.5271 20.9816 64.7021 21.5702C64.8772 22.1589 64.9647 22.8526 64.9647 23.6305L64.9866 28.4869ZM61.573 25.5226H61.2011C61.0698 25.5226 60.9604 25.5226 60.8291 25.5436C60.3914 25.5857 59.9538 25.6277 59.5162 25.6908C59.0785 25.7538 58.6847 25.88 58.3564 26.0482C58.0282 26.2163 57.7437 26.4476 57.5249 26.7209C57.3061 26.9942 57.1967 27.3516 57.1967 27.7721C57.1967 28.2556 57.328 28.655 57.6124 28.9914C57.8969 29.3278 58.3783 29.496 59.0566 29.496C59.3849 29.496 59.7131 29.4539 60.0194 29.3698C60.3258 29.2857 60.5884 29.1806 60.8291 29.0334C61.0698 28.8863 61.2448 28.7391 61.3761 28.592C61.5074 28.4238 61.573 28.2766 61.573 28.1505V25.5226ZM71.6168 20.477C71.9012 20.1617 72.3389 19.8253 72.9515 19.4889C73.5642 19.1526 74.3082 18.9844 75.2273 18.9844C75.8837 18.9844 76.5183 19.0895 77.1091 19.2997C77.6999 19.51 78.225 19.8674 78.6846 20.3299C79.1441 20.8134 79.5161 21.4441 79.7787 22.2219C80.0631 22.9998 80.1944 23.9669 80.1944 25.1231C80.1944 26.4476 80.0412 27.5618 79.713 28.4238C79.3848 29.2857 78.9909 29.9795 78.4876 30.463C77.9844 30.9676 77.4154 31.325 76.8027 31.5352C76.19 31.7454 75.5555 31.8506 74.9428 31.8506C74.4395 31.8506 73.98 31.7875 73.608 31.6824C73.236 31.5772 72.9078 31.4511 72.6452 31.304C72.3826 31.1778 72.1857 31.0307 72.0325 30.9045C71.9012 30.7784 71.7918 30.6733 71.7699 30.6312V36.9382H68.1376V19.3628C68.2251 19.3418 68.3345 19.3208 68.4658 19.3208C68.5752 19.2997 68.7065 19.2997 68.8378 19.2787C68.991 19.2787 69.1441 19.2577 69.3411 19.2577C69.9319 19.2577 70.4352 19.3418 70.8509 19.531C71.2448 19.7202 71.5074 20.0355 71.6168 20.477ZM76.4307 25.2072C76.4307 24.7027 76.387 24.2191 76.2995 23.7777C76.2119 23.3362 76.0588 22.9578 75.8618 22.6214C75.6649 22.306 75.3804 22.0538 75.0303 21.8646C74.6802 21.6754 74.2645 21.5913 73.7612 21.5913C73.0172 21.5913 72.492 21.7384 72.2076 21.9907C71.9231 22.264 71.7699 22.5583 71.7699 22.8947V28.3397C71.9012 28.4868 72.1638 28.634 72.5358 28.8232C72.9078 29.0124 73.3235 29.0965 73.8049 29.0965C74.7021 29.0965 75.3585 28.7602 75.7962 28.0664C76.2119 27.3936 76.4307 26.4476 76.4307 25.2072ZM82.9953 29.6221C82.864 29.2857 82.7983 28.9283 82.7546 28.5499C82.7108 28.1715 82.7108 27.7931 82.7108 27.4147V15.5366C82.8421 15.5156 82.9734 15.4945 83.1047 15.4945C83.236 15.4735 83.3673 15.4735 83.4986 15.4525C83.6298 15.4525 83.783 15.4315 83.9143 15.4315C84.1988 15.4315 84.4832 15.4525 84.7677 15.5156C85.0522 15.5576 85.3147 15.6627 85.5335 15.8309C85.7742 15.9781 85.9493 16.1883 86.1025 16.4616C86.2338 16.7349 86.3213 17.0713 86.3213 17.4917V19.3208H90.0631V21.9066H86.3432V27.3726C86.3432 28.5709 86.8465 29.1596 87.853 29.1596C88.0937 29.1596 88.3344 29.1175 88.5532 29.0545C88.772 28.9704 88.969 28.8863 89.144 28.8022C89.3191 28.7181 89.4723 28.613 89.6036 28.5079C89.7348 28.4028 89.8224 28.3187 89.888 28.2766C90.1506 28.655 90.3694 28.9704 90.5007 29.2437C90.632 29.517 90.7195 29.7693 90.7195 30.0215C90.7195 30.2528 90.632 30.463 90.4351 30.6733C90.2381 30.8835 89.9755 31.0937 89.6473 31.2619C89.3191 31.4511 88.9033 31.5983 88.4219 31.7034C87.9405 31.8085 87.4154 31.8716 86.8465 31.8716C85.7524 31.8716 84.8771 31.6613 84.2644 31.2619C83.6955 30.8204 83.2579 30.2948 82.9953 29.6221ZM99.2534 29.2857C99.691 29.2857 100.085 29.2437 100.435 29.1386C100.763 29.0545 101.07 28.9283 101.354 28.8022C101.617 28.6761 101.857 28.5079 102.054 28.3607C102.251 28.1925 102.426 28.0454 102.579 27.9192C102.798 28.1715 103.017 28.5079 103.258 28.9073C103.498 29.3068 103.608 29.6431 103.608 29.8954C103.608 30.2738 103.389 30.6102 102.951 30.9255C102.579 31.1988 102.054 31.4301 101.354 31.6403C100.676 31.8295 99.8661 31.9346 98.9471 31.9346C98.1156 31.9346 97.284 31.8295 96.4744 31.6193C95.6648 31.4091 94.9427 31.0517 94.3081 30.5471C93.6736 30.0426 93.1703 29.3488 92.7764 28.4869C92.3825 27.6249 92.1856 26.5317 92.1856 25.2283C92.1856 24.1561 92.3607 23.2311 92.7108 22.4532C93.0609 21.6753 93.5204 21.0236 94.0893 20.5191C94.6582 20.0145 95.3147 19.6361 96.0587 19.3838C96.7808 19.1526 97.5247 19.0264 98.2906 19.0264C99.2753 19.0264 100.129 19.1736 100.829 19.4679C101.529 19.7622 102.076 20.1617 102.514 20.6662C102.951 21.1708 103.258 21.7384 103.455 22.3901C103.652 23.0419 103.739 23.7146 103.739 24.4294V24.7868C103.739 24.9339 103.739 25.0601 103.717 25.2283C103.717 25.3754 103.695 25.5226 103.695 25.6697C103.695 25.8169 103.674 25.922 103.652 26.0061H95.7961C95.8617 26.9522 96.1681 27.73 96.7151 28.3607C97.2403 28.9704 98.0937 29.2857 99.2534 29.2857ZM100.479 24.093C100.479 23.2731 100.304 22.6004 99.9755 22.0958C99.6473 21.5913 99.0565 21.318 98.2031 21.318C97.4591 21.318 96.8902 21.5702 96.4525 22.0538C96.0149 22.5373 95.7961 23.21 95.7961 24.093H100.479ZM110.063 20.5401C110.172 20.3929 110.304 20.2248 110.479 20.0355C110.654 19.8463 110.873 19.6782 111.135 19.531C111.398 19.3838 111.682 19.2577 111.989 19.1526C112.295 19.0475 112.623 19.0054 112.995 19.0054C113.214 19.0054 113.433 19.0264 113.673 19.0475C113.914 19.0895 114.133 19.1526 114.33 19.2367C114.527 19.3208 114.702 19.4469 114.833 19.6151C114.964 19.7833 115.03 19.9725 115.03 20.2037C115.03 20.5821 114.943 21.0026 114.746 21.4861C114.549 21.9697 114.352 22.3901 114.155 22.7265C113.849 22.4952 113.542 22.306 113.258 22.1799C112.951 22.0538 112.601 21.9907 112.186 21.9907C111.638 21.9907 111.179 22.1379 110.807 22.4532C110.435 22.7686 110.238 23.1259 110.238 23.5674V31.8506H106.606V19.3418C106.693 19.3208 106.803 19.2997 106.934 19.2997C107.043 19.2787 107.175 19.2787 107.306 19.2577C107.437 19.2577 107.612 19.2367 107.809 19.2367C108.378 19.2367 108.881 19.3418 109.297 19.552C109.691 19.7833 109.954 20.0986 110.063 20.5401ZM120.369 20.5401C120.479 20.3929 120.61 20.2248 120.785 20.0355C120.96 19.8463 121.179 19.6782 121.441 19.531C121.704 19.3838 121.989 19.2577 122.295 19.1526C122.601 19.0475 122.929 19.0054 123.301 19.0054C123.52 19.0054 123.739 19.0264 123.98 19.0475C124.22 19.0895 124.439 19.1526 124.636 19.2367C124.833 19.3208 125.008 19.4469 125.139 19.6151C125.271 19.7833 125.336 19.9725 125.336 20.2037C125.336 20.5821 125.249 21.0026 125.052 21.4861C124.855 21.9697 124.658 22.3901 124.461 22.7265C124.155 22.4952 123.848 22.306 123.564 22.1799C123.258 22.0538 122.908 21.9907 122.492 21.9907C121.945 21.9907 121.485 22.1379 121.113 22.4532C120.741 22.7686 120.544 23.1259 120.544 23.5674V31.8506H116.912V19.3418C116.999 19.3208 117.109 19.2997 117.24 19.2997C117.35 19.2787 117.481 19.2787 117.612 19.2577C117.743 19.2577 117.919 19.2367 118.115 19.2367C118.684 19.2367 119.188 19.3418 119.603 19.552C119.997 19.7833 120.26 20.0986 120.369 20.5401ZM137.678 28.4869C137.678 29.8323 137.875 30.8204 138.29 31.4301C137.962 31.5562 137.678 31.6403 137.393 31.6824C137.109 31.7244 136.824 31.7665 136.518 31.7665C135.883 31.7665 135.402 31.6403 135.074 31.4091C134.746 31.1778 134.527 30.8204 134.439 30.3789C134.045 30.7784 133.542 31.1147 132.886 31.388C132.251 31.6613 131.463 31.7875 130.544 31.7875C130.063 31.7875 129.582 31.7244 129.1 31.5983C128.619 31.4721 128.181 31.2619 127.787 30.9676C127.393 30.6733 127.087 30.2948 126.824 29.8113C126.584 29.3278 126.452 28.7391 126.452 28.0454C126.452 27.1834 126.671 26.4686 127.109 25.922C127.546 25.3754 128.094 24.955 128.75 24.6396C129.406 24.3243 130.129 24.114 130.873 23.9879C131.638 23.8618 132.339 23.7987 132.973 23.7566C133.192 23.7356 133.389 23.7356 133.608 23.7356H134.177V23.2731C134.177 22.6214 134.002 22.1589 133.63 21.8646C133.258 21.5913 132.667 21.4441 131.857 21.4441C131.091 21.4441 130.413 21.5702 129.822 21.8015C129.231 22.0327 128.641 22.306 128.072 22.6214C127.831 22.3271 127.612 22.0117 127.481 21.6543C127.328 21.2969 127.262 21.0447 127.262 20.8765C127.262 20.6452 127.393 20.414 127.678 20.1827C127.962 19.9515 128.334 19.7622 128.816 19.573C129.297 19.3838 129.844 19.2577 130.479 19.1315C131.091 19.0264 131.748 18.9634 132.448 18.9634C133.411 18.9634 134.22 19.0475 134.877 19.2367C135.533 19.4259 136.08 19.7202 136.496 20.0986C136.912 20.498 137.218 20.9816 137.393 21.5702C137.568 22.1589 137.656 22.8526 137.656 23.6305L137.678 28.4869ZM134.264 25.5226H133.892C133.761 25.5226 133.651 25.5226 133.52 25.5436C133.083 25.5857 132.645 25.6277 132.207 25.6908C131.77 25.7538 131.376 25.88 131.048 26.0482C130.719 26.2163 130.435 26.4476 130.216 26.7209C129.997 26.9942 129.888 27.3516 129.888 27.7721C129.888 28.2556 130.019 28.655 130.304 28.9914C130.588 29.3278 131.069 29.496 131.748 29.496C132.076 29.496 132.404 29.4539 132.711 29.3698C133.017 29.2857 133.28 29.1806 133.52 29.0334C133.761 28.8863 133.936 28.7391 134.067 28.592C134.199 28.4238 134.264 28.2766 134.264 28.1505V25.5226Z" fill="#044D80"/>
<g style="mix-blend-mode:color">
<rect y="0.258789" width="146" height="45" fill="#FEF1AB"/>
</g>
</g>
<defs>
<clipPath id="clip0_5301_1129">
<rect width="146" height="45" fill="white" transform="translate(0 0.5)"/>
</clipPath>
</defs>
</svg>
