<svg width="201" height="112" viewBox="0 0 201 112" fill="none" xmlns="http://www.w3.org/2000/svg">
<path d="M54.3194 68.4817C53.1245 64.2585 52.5202 59.8902 52.5236 55.5012C52.5236 29.2795 73.7809 8.0222 100.001 8.0222C104.391 8.01847 108.76 8.6233 112.983 9.8194L118.56 4.24126C112.609 2.08953 106.329 0.992671 100.001 1.00004C69.9017 1.00004 45.5 25.4003 45.5 55.5012C45.4933 61.8289 46.5907 68.1093 48.7427 74.0599L54.3194 68.4817Z" fill="#043363"/>
<path d="M145.684 42.5188C146.879 46.742 147.484 51.1104 147.48 55.4993C147.48 81.721 126.223 102.978 100.001 102.978C95.6121 102.982 91.2437 102.377 87.0207 101.181L81.4482 106.759C87.3983 108.911 93.6782 110.009 100.005 110.002C130.102 110.002 154.504 85.6002 154.504 55.4993C154.511 49.1716 153.413 42.8912 151.261 36.9407L145.684 42.5188Z" fill="#FDBC44"/>
<path d="M105.472 60.9808C105.472 58.097 102.252 57.3251 100.275 56.9449C98.0279 56.5177 91.2848 55.3642 91.2848 48.7393C91.2848 45.716 92.9709 39.9556 101.538 39.9556C110.387 39.9556 111.792 46.8681 111.792 48.8817H104.769C104.769 47.7325 104.485 45.1392 101.54 45.1392C98.7926 45.1392 98.0279 46.8296 98.0279 47.8721C98.0279 50.1777 101.1 50.7872 102.242 51.0406C107.438 52.1927 112.353 54.064 112.353 60.1163C112.353 64.5808 108.7 69.0411 101.255 69.0411C94.7938 69.0411 90.0188 65.5891 90.0188 58.9643H97.041C97.041 62.1343 98.8666 63.8588 101.255 63.8588C103.643 63.8588 105.472 62.8534 105.472 60.9808Z" fill="#043363"/>
<path d="M85.9481 40.6709V59.2125C85.9481 65.2706 81.7342 69.0387 74.7106 69.0387C67.687 69.0387 63.4731 65.2634 63.4731 59.2125V40.6709H70.4967V59.2125C70.4967 62.0222 71.6203 63.9889 74.7177 63.9889C77.8151 63.9889 78.9245 62.0222 78.9245 59.2125V40.6709H85.9481Z" fill="#043363"/>
<path d="M136.516 45.7278V40.6709H116.851V68.4847H123.874V56.9653H133.708V51.9084H123.874V45.7278H136.516Z" fill="#043363"/>
<path d="M150.929 1.00098L131.74 20.1905C132.994 21.3182 134.187 22.5113 135.315 23.765L154.505 4.57543L150.929 1.00098Z" fill="#043363"/>
</svg>
