<svg width="200" height="112" viewBox="0 0 200 112" fill="none" xmlns="http://www.w3.org/2000/svg">
<g clip-path="url(#clip0_6030_1536)">
<rect x="0.5" width="199" height="112" rx="16" fill="#08003A"/>
<path d="M71.8649 62.3922V70.8181H77.335V72.7208H69.7847V62.3922H71.8649Z" fill="white"/>
<path d="M81.0717 62.3534H79.03V72.7208H81.0717V62.3534Z" fill="white"/>
<path d="M84.0763 71.2453C83.0748 70.2745 82.6125 69.032 82.6125 67.5177C82.6125 66.081 83.1133 64.8385 84.0763 63.8289C85.0779 62.8193 86.2721 62.3534 87.7359 62.3534C89.1998 62.3534 90.471 62.8193 91.5111 63.7512L90.1243 65.2656C89.4309 64.722 88.6219 64.4502 87.7359 64.4502C86.8114 64.4502 86.0795 64.7608 85.5016 65.3044C84.9238 65.8868 84.6542 66.6246 84.6542 67.5177C84.6542 68.4884 84.9623 69.2261 85.5016 69.8086C86.0795 70.391 86.8114 70.6628 87.7359 70.6628C88.4678 70.6628 89.0457 70.5075 89.4309 70.2357V68.4496H88.0441V66.5081H91.4726V71.3617C90.4325 72.2936 89.1612 72.7596 87.6974 72.7596C86.2721 72.7208 85.0394 72.2548 84.0763 71.2453Z" fill="white"/>
<path d="M93.5914 72.7208V62.3534H95.633V66.5081H100.41V62.3534H102.49V72.7208H100.41V68.4496H95.633V72.7208H93.5914Z" fill="white"/>
<path d="M113.084 62.3922V64.2948H109.655V72.7208H107.613V64.2948H104.185V62.3922H113.084Z" fill="white"/>
<path d="M114.624 72.7208V62.3534H116.666V66.5081H121.481V62.3534H123.523V72.7208H121.481V68.4496H116.666V72.7208H114.624Z" fill="white"/>
<path d="M126.682 71.2452C125.68 70.2357 125.218 69.032 125.218 67.5565C125.218 66.081 125.719 64.8384 126.682 63.8677C127.683 62.8582 128.877 62.3922 130.341 62.3922C131.805 62.3922 133.038 62.897 134.001 63.8677C135.003 64.8384 135.465 66.081 135.465 67.5565C135.465 69.032 134.964 70.2745 134.001 71.2452C132.999 72.2548 131.805 72.7208 130.341 72.7208C128.916 72.7208 127.683 72.2548 126.682 71.2452ZM130.38 70.8181C131.304 70.8181 132.036 70.5075 132.614 69.8862C133.192 69.265 133.462 68.4884 133.462 67.5565C133.462 66.6246 133.192 65.848 132.614 65.2267C132.036 64.6055 131.304 64.2948 130.38 64.2948C129.455 64.2948 128.723 64.6055 128.146 65.2267C127.568 65.848 127.298 66.6246 127.298 67.5565C127.298 68.4884 127.568 69.265 128.146 69.8862C128.723 70.5075 129.455 70.8181 130.38 70.8181Z" fill="white"/>
<path d="M138.932 62.3922V68.4107C138.932 69.1873 139.163 69.7697 139.625 70.1192C140.087 70.5075 140.665 70.6628 141.32 70.6628C142.014 70.6628 142.591 70.4687 143.015 70.1192C143.477 69.7697 143.709 69.1873 143.709 68.4107V62.3922H145.75V68.9543C145.75 70.0027 145.326 70.8958 144.479 71.6335C143.632 72.3713 142.553 72.7208 141.282 72.7208C140.01 72.7208 138.932 72.3713 138.084 71.6335C137.237 70.8958 136.813 70.0027 136.813 68.9543V62.3922H138.932Z" fill="white"/>
<path d="M153.57 62.7028C154.109 62.9358 154.572 63.2853 155.034 63.7512L153.647 65.1491C153.185 64.6055 152.569 64.3337 151.721 64.3337C150.912 64.3337 150.373 64.5278 150.142 64.9161C149.911 65.3044 149.911 65.6539 150.142 65.9257C150.373 66.1975 150.912 66.3916 151.721 66.5469C152.607 66.6246 153.377 66.9352 154.071 67.4012C154.764 67.8671 155.15 68.6437 155.15 69.7309C155.15 70.5463 154.764 71.2841 154.032 71.8665C153.262 72.4489 152.376 72.7596 151.374 72.7596C150.411 72.7596 149.602 72.6043 148.986 72.3325C148.331 72.0607 147.792 71.6724 147.33 71.2452L148.716 69.8474C149.179 70.391 149.949 70.7405 151.066 70.8181C151.991 70.8181 152.569 70.624 152.761 70.2357C152.992 69.8474 152.992 69.4591 152.761 69.0708C152.53 68.6825 151.952 68.4496 151.066 68.3331C150.257 68.2554 149.487 67.9836 148.793 67.5565C148.1 67.1294 147.753 66.4304 147.753 65.4209C147.753 64.489 148.138 63.7512 148.909 63.2076C149.679 62.664 150.488 62.3922 151.297 62.3922C152.299 62.3922 153.069 62.4699 153.57 62.7028Z" fill="white"/>
<path d="M156.999 72.7208V62.3922L164.549 62.3534V64.2948H159.041V66.5081H163.162V68.4496H159.041V70.8181H164.549V72.7208H156.999Z" fill="white"/>
<path d="M70.8632 78.4674L73.1745 84.5248L75.5629 78.4674H77.2964L74.022 86.738H72.4041L69.0912 78.4674H70.8632Z" fill="white"/>
<path d="M78.6448 86.738V78.5062L84.6542 78.4674V80.0206H80.2627V81.8067H83.5756V83.321H80.2627V85.1848H84.6542V86.738H78.6448Z" fill="white"/>
<path d="M86.3107 86.738V78.4674H86.85L91.9734 83.6705V78.4674H93.6299V86.738H93.0135L87.9286 81.6126V86.738H86.3107Z" fill="white"/>
<path d="M101.989 78.4674V80.0206H99.2925V86.738H97.6361V80.0206H94.901V78.4674H101.989Z" fill="white"/>
<path d="M104.724 78.4674V83.2434C104.724 83.8647 104.917 84.3306 105.264 84.6024C105.61 84.913 106.073 85.0295 106.612 85.0295C107.151 85.0295 107.613 84.8742 107.96 84.6024C108.307 84.2918 108.499 83.8647 108.499 83.2434V78.4674H110.156V83.7093C110.156 84.5636 109.809 85.2625 109.154 85.8449C108.499 86.4274 107.652 86.738 106.612 86.738C105.61 86.738 104.763 86.4274 104.069 85.8449C103.415 85.2625 103.068 84.5247 103.068 83.7093V78.4674H104.724Z" fill="white"/>
<path d="M116.897 83.1269L118.939 86.738H117.051L115.087 83.321H113.584V86.738H111.928V78.4674H115.51C117.437 78.4674 118.361 79.244 118.361 80.836C118.4 82.0397 117.899 82.8163 116.897 83.1269ZM113.623 81.8067H115.934C116.589 81.8067 116.936 81.4961 116.936 80.9136C116.936 80.37 116.589 80.0982 115.934 80.0594H113.623V81.8067Z" fill="white"/>
<path d="M119.786 86.738V78.5062L125.796 78.4674V80.0206H121.404V81.8067H124.679V83.321H121.404V85.1848H125.796V86.738H119.786Z" fill="white"/>
<path d="M131.882 78.778C132.306 78.9722 132.691 79.244 133.038 79.5934L131.959 80.6807C131.613 80.2535 131.073 80.0206 130.418 80.0206C129.764 80.0206 129.34 80.1759 129.147 80.4865C128.955 80.7971 128.955 81.0689 129.147 81.3019C129.34 81.5349 129.764 81.6902 130.418 81.8067C131.112 81.8844 131.728 82.1173 132.306 82.5056C132.884 82.8939 133.153 83.5152 133.153 84.3694C133.153 85.0295 132.845 85.6119 132.267 86.0779C131.651 86.5438 130.958 86.7768 130.149 86.7768C129.378 86.7768 128.762 86.6603 128.261 86.4274C127.76 86.1944 127.298 85.9226 126.951 85.5343L128.03 84.4471C128.377 84.8742 129.032 85.146 129.879 85.2237C130.611 85.2237 131.073 85.0683 131.227 84.7577C131.42 84.4471 131.42 84.1364 131.227 83.8258C131.035 83.5152 130.611 83.321 129.879 83.2434C129.224 83.1657 128.608 82.9716 128.069 82.6221C127.529 82.2726 127.26 81.729 127.26 80.9136C127.26 80.1759 127.568 79.5934 128.184 79.1663C128.8 78.7392 129.455 78.5062 130.11 78.5062C130.881 78.4674 131.459 78.5839 131.882 78.778Z" fill="white"/>
<path d="M60.5394 95.0087C59.8074 90.5822 59.114 86.1556 58.4977 81.6903C57.8813 77.2249 57.3035 72.7984 56.8412 68.3331C56.379 63.8677 55.9938 59.4024 55.8011 54.8982L55.4159 41.4245V41.308L55.4544 41.2304C55.8397 40.6868 56.2249 40.182 56.6486 39.6772C56.8798 39.4442 57.0724 39.1724 57.342 38.9395C57.4191 38.8618 57.4576 38.823 57.5346 38.7841C57.5346 38.7841 57.5346 38.7841 57.5732 38.7453C57.6117 38.6677 57.6502 38.5123 57.6502 38.357C57.7273 37.7746 57.7273 37.1145 57.6887 36.4932C57.6887 35.872 57.6502 35.2119 57.6117 34.5906L57.4191 30.7465C57.3806 30.0864 57.342 29.4652 57.3806 28.8051C57.3806 28.6497 57.3806 28.4944 57.3806 28.3003V28.1838C57.3806 28.145 57.3806 28.145 57.3806 28.1061C57.3806 28.0673 57.3806 28.0285 57.342 27.9508C57.265 27.7178 57.1109 27.446 56.9183 27.2131C56.2249 26.2035 55.3004 25.3104 54.4144 24.4174C53.5283 23.5243 52.6038 22.6701 51.6408 21.777C49.8302 20.0685 47.9041 18.3989 45.9395 16.768L46.4403 16.7292C44.9379 18.2824 43.397 19.8355 41.8176 21.3499C41.0472 22.0876 40.2382 22.8642 39.4293 23.5631C38.6203 24.3009 37.8113 24.9998 36.8483 25.6211C36.7327 25.6987 36.6171 25.7764 36.4631 25.854C36.4245 25.854 36.386 25.8929 36.386 25.8929C36.4245 25.8929 36.4245 25.8929 36.4245 25.8929C36.4245 25.8929 36.386 25.9317 36.386 25.9705C36.309 26.1259 36.2704 26.3977 36.2704 26.6695C36.2319 27.1742 36.2319 27.7178 36.2319 28.2615C36.2319 29.3487 36.309 30.4359 36.386 31.5231L36.6171 34.7847C36.6557 35.3283 36.6942 35.872 36.6942 36.4156C36.6942 36.6874 36.6942 36.9592 36.6942 37.2698C36.6942 37.5416 36.6942 37.8134 36.6171 38.1629L36.5401 37.8522L39.0055 41.2304L38.5818 41.1139L39.1596 40.9586L39.7374 40.8421C40.1227 40.7644 40.4694 40.6868 40.8546 40.6091C41.5865 40.4538 42.3569 40.2985 43.0889 40.182C44.5912 39.9102 46.0551 39.6384 47.5574 39.4054C50.5236 38.9006 53.5283 38.4347 56.4945 37.9299C62.4655 36.998 68.4364 36.1049 74.4073 35.2507C80.3782 34.3964 86.3877 33.5422 92.3586 32.7656L101.334 31.6008C104.339 31.2513 107.344 30.863 110.348 30.63C107.344 30.9018 104.339 31.3678 101.373 31.7561L92.3971 33.0763L74.4844 35.7943C68.5134 36.7262 62.5425 37.6581 56.5716 38.6288C53.6054 39.0948 50.6007 39.5995 47.6345 40.1043C46.1321 40.3761 44.6683 40.6091 43.1659 40.9197C42.434 41.0751 41.7021 41.1915 40.9316 41.3469C40.5464 41.4245 40.1997 41.5022 39.8145 41.5798L39.3522 41.6187L38.8514 41.774L38.5818 41.8516L38.4277 41.6575L35.9623 38.2794L35.8467 38.124L35.8852 37.9687C35.9623 37.5416 35.9623 36.9592 35.9623 36.4156C35.9623 35.872 35.9237 35.3283 35.8852 34.7847L35.6541 31.5231C35.577 30.4359 35.5 29.3487 35.5 28.2226C35.5 27.679 35.5 27.1354 35.5385 26.553C35.577 26.2812 35.6156 25.9705 35.7311 25.6599C35.7697 25.5822 35.8082 25.4658 35.8852 25.3881C35.9237 25.3493 36.0008 25.2716 36.0778 25.2328L36.1549 25.194C36.2704 25.1551 36.386 25.0775 36.4631 24.9998C37.3105 24.4174 38.158 23.7184 38.967 23.0195C39.776 22.3206 40.5464 21.5828 41.3554 20.8063C42.9348 19.2919 44.4371 17.7776 45.978 16.2244L46.1706 15.9915L46.4403 16.2244C48.4049 17.8553 50.331 19.5249 52.1801 21.2722C53.1046 22.1265 54.0291 23.0195 54.9537 23.9126C55.8397 24.8445 56.7257 25.7376 57.4961 26.8248C57.6887 27.0966 57.8813 27.3684 57.9969 27.7567C58.0354 27.8343 58.0354 27.9508 58.074 28.0673C58.074 28.1061 58.074 28.2226 58.074 28.2615V28.3779C58.074 28.5333 58.074 28.6886 58.074 28.8439C58.074 29.4652 58.1125 30.0864 58.1125 30.7465L58.3051 34.5906C58.3436 35.2119 58.3436 35.872 58.3821 36.5321C58.3821 37.1921 58.3821 37.8134 58.3051 38.5123C58.2666 38.6677 58.2666 38.8618 58.1895 39.0559C58.151 39.0948 58.151 39.1724 58.1125 39.2113C58.074 39.2501 57.9584 39.3666 57.9584 39.3666C57.9199 39.4054 57.8428 39.4442 57.8043 39.4831C57.5732 39.6772 57.3806 39.9102 57.1879 40.1432C56.7642 40.6091 56.379 41.1139 56.0323 41.6187L56.0708 41.4245L56.1864 48.1808L56.2634 51.5589C56.2634 52.685 56.2634 53.811 56.3405 54.937C56.4945 59.4024 56.8412 63.9066 57.265 68.3719C57.6887 72.8373 58.1895 77.3026 58.7288 81.768C59.2296 86.1168 59.846 90.5822 60.5394 95.0087Z" fill="white"/>
<path d="M110.734 50.1223C104.763 49.734 98.7917 49.4622 92.8208 49.1515C86.8499 48.8409 80.879 48.5691 74.908 48.3361C68.9371 48.1031 62.9662 47.8702 56.9953 47.676C51.0243 47.5207 45.0534 47.4042 39.0825 47.443L39.4677 47.0159C39.8144 50.8212 40.007 54.5876 40.0841 58.3929C40.1611 62.1981 40.1226 66.0034 39.93 69.8086C39.7374 73.6139 39.4292 77.4191 38.8899 81.1855C38.6202 83.0882 38.2735 84.952 37.9268 86.8158C37.5416 88.6796 37.0793 90.5433 36.54 92.3683L36.1163 92.1742C36.463 91.6306 36.8482 91.2034 37.2334 90.7375L37.8498 90.0774L38.5046 89.4561C38.9284 89.029 39.3907 88.6407 39.8529 88.2524C40.3152 87.8641 40.7774 87.4758 41.2397 87.1264C41.702 86.7769 42.2028 86.3886 42.665 86.078L44.1289 85.0684C45.1304 84.4472 46.132 83.7871 47.1721 83.2047C48.2122 82.5834 49.2523 82.0786 50.3309 81.535C51.371 80.9914 52.4882 80.5254 53.5668 79.9818C54.6454 79.5159 55.7625 79.0499 56.8412 78.584L60.1541 77.3026L56.8412 78.6616L53.6053 80.1371C52.5267 80.6808 51.4481 81.1855 50.408 81.7291C49.3679 82.3116 48.3278 82.8552 47.2877 83.4765C46.2476 84.0589 45.2845 84.719 44.283 85.3791L42.8191 86.3886C42.3183 86.7381 41.8946 87.1264 41.3938 87.4759C40.9315 87.8253 40.4693 88.2136 40.007 88.6019C39.5833 88.9902 39.121 89.3785 38.6973 89.8056L38.0809 90.4269L37.5031 91.087C37.1178 91.5141 36.7326 91.98 36.4245 92.446L35.577 93.7662L36.0007 92.2518C36.5015 90.4269 36.9252 88.6019 37.3105 86.7381C37.6572 84.8743 37.9653 83.0105 38.235 81.1467C38.7358 77.3803 39.044 73.6139 39.198 69.8474C39.3521 66.081 39.3907 62.2758 39.3136 58.5093C39.198 54.7429 39.0054 50.9377 38.6587 47.1712L38.6202 46.7441H39.044C45.0534 46.6665 51.0243 46.8606 56.9953 47.0159C62.9662 47.2101 68.9371 47.443 74.9465 47.7537C80.9175 48.0643 86.8884 48.4138 92.8593 48.8021L101.796 49.4233C104.763 49.6175 107.767 49.8116 110.734 50.1223Z" fill="white"/>
<path d="M38.8129 70.2357C40.0456 68.8767 41.3939 67.6342 42.7807 66.4693C44.1675 65.3044 45.6313 64.2172 47.1722 63.2076C48.7131 62.2369 50.2925 61.305 51.949 60.5284C53.6054 59.7907 55.3389 59.1694 57.1494 58.8199C55.4545 59.4412 53.8365 60.2178 52.2186 61.072C51.8334 61.305 51.4482 61.4992 51.0244 61.7321C50.6392 61.9263 50.254 62.1981 49.8688 62.4311C49.0983 62.897 48.3279 63.363 47.596 63.8677C46.0936 64.8385 44.6298 65.8868 43.1659 66.9741C41.7021 68.0224 40.2382 69.1097 38.8129 70.2357Z" fill="white"/>
</g>
<defs>
<clipPath id="clip0_6030_1536">
<rect width="200" height="112" fill="white"/>
</clipPath>
</defs>
</svg>
