<svg width="200" height="112" viewBox="0 0 200 112" fill="none" xmlns="http://www.w3.org/2000/svg">
<g clip-path="url(#clip0_6031_1560)">
<path d="M78.1909 38.2902C78.3253 39.7953 79.3197 41.166 81.864 41.166C84.1932 41.166 85.0712 40.3418 85.0712 39.0786C85.0712 37.8154 84.3545 37.2689 82.9838 37.0718L79.0061 36.6329C75.7093 36.2476 73.8191 34.3842 73.8191 31.2845C73.8191 27.8533 76.3992 25.4972 81.6669 25.4972C87.2929 25.4972 89.5416 28.1848 89.7835 31.4279H85.0085C84.8203 29.9765 83.7184 29.009 81.6579 29.009C79.7945 29.009 78.6926 29.7526 78.6926 30.953C78.6926 31.8847 79.2391 32.5746 80.6366 32.7358L84.1216 33.0942C88.1261 33.4794 89.9358 35.3697 89.9358 38.6665C89.9358 42.2589 87.6871 44.6778 81.7565 44.6778C75.8258 44.6778 73.6668 41.5512 73.4697 38.2902H78.164H78.1909ZM106.536 25.972V29.7884H100.695V44.2209H95.8395V29.7884H89.9716V25.972H106.545H106.536ZM118.801 44.2209L117.618 40.7897H109.77L108.588 44.2209H103.759L109.985 25.972H117.421L123.647 44.2209H118.792H118.801ZM111.007 37.1435H116.382L113.694 29.3226L111.007 37.1435ZM140.23 40.933C140.23 42.4112 140.391 43.1817 140.588 44.2209H135.706C135.482 43.4773 135.374 42.4381 135.374 40.933V40.1895C135.374 38.4336 134.245 37.6094 132.687 37.6094H129.363V44.2209H124.481V25.972H134.577C138.689 25.972 140.696 28.0863 140.696 31.0158C140.696 33.6227 139.02 35.3786 136.745 35.8445C138.635 36.2566 140.23 37.2152 140.23 39.9028V40.9151V40.933ZM133.287 34.1603C134.962 34.1603 135.643 33.3898 135.643 31.831C135.643 30.4066 134.926 29.6899 133.314 29.6899H129.363V34.1603H133.287ZM157.807 25.972V29.7884H151.966V44.2209H147.11V29.7884H141.242V25.972H157.816H157.807ZM158.909 25.972H163.764V36.6418C163.764 39.8222 164.92 40.7001 167.384 40.7001C169.847 40.7001 171.057 39.8222 171.057 36.6418V25.972H175.886V37.2779C175.886 42.1335 173.028 44.6599 167.384 44.6599C161.74 44.6599 158.909 42.1604 158.909 37.2779V25.972ZM194 32.0102C194 35.5489 192.325 38.2633 188.132 38.2633H182.811V44.2209H177.928V25.972H188.132C192.334 25.972 194 28.6865 194 32.0102ZM186.511 34.5365C188.266 34.5365 188.956 33.4704 188.956 32.037C188.956 30.6037 188.293 29.6809 186.573 29.6809H182.811V34.5365H186.511ZM97.0938 46.5591H101.842L98.7153 64.808H90.5091L87.7409 50.4293L84.9995 64.808H76.8202L73.6668 46.5591H78.4149L81.0487 61.8695L84.1484 46.5591H91.3333L94.4599 61.9501L97.0938 46.5591ZM114.375 50.3755H111.168V60.9916H114.375V64.808H103.123V60.9916H106.33V50.3755H103.123V46.5591H114.375V50.3755ZM120.413 58.8773C120.548 60.3824 121.542 61.762 124.086 61.762C126.416 61.762 127.294 60.9378 127.294 59.6746C127.294 58.4115 126.577 57.865 125.206 57.6679L121.228 57.2289C117.932 56.8437 116.041 54.9803 116.041 51.8806C116.041 48.4494 118.622 46.0932 123.889 46.0932C129.515 46.0932 131.764 48.7809 132.006 52.0149H127.231C127.043 50.5636 125.941 49.6051 123.88 49.6051C122.017 49.6051 120.915 50.3486 120.915 51.5491C120.915 52.4808 121.461 53.1706 122.859 53.3319L126.344 53.6902C130.348 54.0754 132.158 55.9657 132.158 59.2625C132.158 62.855 129.909 65.2738 123.979 65.2738C118.048 65.2738 115.889 62.1472 115.692 58.8773H120.386H120.413ZM138.797 60.9916H148.642V64.808H133.968V46.5501H148.562V50.3665H138.797V53.744H147.737V57.2827H138.797V60.9826V60.9916ZM73.6399 76.2751C73.6399 70.9805 76.5783 66.6714 83.6826 66.6714C89.9895 66.6714 92.4621 69.6098 92.713 73.1754H87.8842C87.6603 71.5808 86.3164 70.4072 83.7184 70.4072C80.4575 70.4072 78.7016 72.1631 78.7016 76.2751C78.7016 80.1453 80.1529 82.0893 83.4228 82.0893C86.6927 82.0893 87.8125 80.4678 88.1171 78.4162H82.2223V75.3703H92.704V85.3861H88.6726V82.0356C87.9559 83.9796 86.2896 85.8251 82.2761 85.8251C76.3185 85.8251 73.6578 81.4622 73.6578 76.2751H73.6399ZM94.7376 67.1372H99.5932V77.807C99.5932 80.9874 100.749 81.8653 103.213 81.8653C105.676 81.8653 106.886 80.9874 106.886 77.807V67.1372H111.714V78.4431C111.714 83.2987 108.857 85.8251 103.213 85.8251C97.5686 85.8251 94.7376 83.3256 94.7376 78.4431V67.1372ZM126.156 67.1372H131.504L124.704 80.1184V85.3861H119.849V80.1184L112.986 67.1372H118.415L121.022 73.1216C121.461 74.1609 121.874 75.1821 122.232 76.2214C122.617 75.1821 123.029 74.1609 123.468 73.1216L126.156 67.1372ZM135.706 79.4555C135.84 80.9605 136.835 82.3312 139.379 82.3312C141.708 82.3312 142.586 81.507 142.586 80.2438C142.586 78.9806 141.869 78.4342 140.499 78.2371L136.521 77.7981C133.224 77.4129 131.334 75.5495 131.334 72.4497C131.334 69.0186 133.914 66.6624 139.182 66.6624C144.808 66.6624 147.056 69.35 147.298 72.5931H142.523C142.335 71.1418 141.233 70.1742 139.173 70.1742C137.309 70.1742 136.207 70.9178 136.207 72.1183C136.207 73.05 136.754 73.7398 138.151 73.9011L141.636 74.2594C145.641 74.6446 147.451 76.5349 147.451 79.8317C147.451 83.4242 145.202 85.843 139.271 85.843C133.341 85.843 131.182 82.7164 130.985 79.4555H135.679H135.706Z" fill="#EE203E"/>
<path d="M20.1116 75.3255C17.5763 75.3255 15.5248 73.2739 15.5248 70.7386C15.5248 68.2033 17.5763 66.1517 20.1116 66.1517C22.6469 66.1517 24.6985 68.2033 24.6985 70.7386C24.6985 73.2739 22.6469 75.3255 20.1116 75.3255ZM40.206 76.7857C40.206 78.3625 38.9249 79.6435 37.3482 79.6435H14.5124C12.9357 79.6435 11.6546 78.3625 11.6546 76.7857V70.7386H5.92999V76.7857C5.92999 81.5159 9.78223 85.3682 14.5124 85.3682H37.3392C42.0694 85.3682 45.9216 81.5159 45.9216 76.7857V70.7386H40.197V76.7857H40.206ZM36.3269 70.7386C36.3269 68.2033 34.2753 66.1517 31.74 66.1517C29.2047 66.1517 27.1532 68.2033 27.1532 70.7386C27.1532 73.2739 29.2047 75.3255 31.74 75.3255C34.2753 75.3255 36.3269 73.2739 36.3269 70.7386ZM56.3316 25.9182H42.6786V31.6428H51.6731L31.2294 56.0015V41.2555C31.2204 38.7292 29.5899 36.5343 27.2607 35.9072C25.0747 35.3248 22.8261 36.2834 21.6615 38.2991L11.6546 55.6073V44.2119H5.93895V57.2289C5.92999 59.6567 7.5336 61.7172 9.92557 62.3622C12.219 62.9804 14.5393 62.0487 15.7039 60.0509L25.4958 43.101V57.0139C25.5048 59.4865 26.8038 61.4843 28.8911 62.2457C29.4555 62.4518 30.0289 62.5503 30.6112 62.5503C32.2327 62.5503 33.8543 61.7799 35.0368 60.3644L56.1793 35.1815V44.2567H61.904V31.4905C61.904 28.4177 59.4045 25.9182 56.3316 25.9182Z" fill="#EE203E"/>
</g>
<defs>
<clipPath id="clip0_6031_1560">
<rect width="188.07" height="60.3279" fill="white" transform="translate(5.92999 25.5061)"/>
</clipPath>
</defs>
</svg>
