<svg fill="none" height="24" viewBox="0 0 24 24" width="24" xmlns="http://www.w3.org/2000/svg"><path d="m22.2234 0h-20.45153c-.979683 0-1.77187.773438-1.77187 1.72969v20.53591c0 .9563.792187 1.7344 1.77187 1.7344h20.45153c.9797 0 1.7766-.7781 1.7766-1.7297v-20.54061c0-.956252-.7969-1.72969-1.7766-1.72969zm-15.10309 20.4516h-3.5625v-11.45629h3.5625zm-1.78125-13.01722c-1.14375 0-2.06718-.92344-2.06718-2.06251 0-1.13906.92343-2.0625 2.06718-2.0625 1.13907 0 2.0625.92344 2.0625 2.0625 0 1.13438-.92343 2.06251-2.0625 2.06251zm15.11254 13.01722h-3.5579v-5.5688c0-1.3266-.0234-3.0375-1.8515-3.0375-1.8516 0-2.1328 1.4484-2.1328 2.9438v5.6625h-3.55315v-11.45629h3.41245v1.56559h.0469c.4735-.89996 1.636-1.85152 3.3657-1.85152 3.6046 0 4.2703 2.37192 4.2703 5.45622z" fill="#0a0b0b"/></svg>