<svg width="56" height="48" viewBox="0 0 56 48" fill="none" xmlns="http://www.w3.org/2000/svg">
<path fill-rule="evenodd" clip-rule="evenodd" d="M44.25 8L53.9999 29.6937L13.7 42.2875L10.068 32.3752H15.2437V28.2315H16.0562C17.1937 28.2315 18.25 28.1502 19.1437 27.9065C20.0375 27.6627 20.85 27.419 21.5 27.0127C22.15 26.6065 22.6375 26.119 23.0437 25.469C23.3687 24.7377 23.5312 24.0065 23.5312 23.2752C23.5312 21.7315 22.8812 20.5127 21.5812 19.7815C20.2812 19.0502 18.4937 18.644 16.1375 18.644H10.0438V32.309L2 10.3562L44.25 8ZM38.2375 31.8877L36.5312 32.294C35.5562 32.4565 34.6625 32.5377 33.9312 32.4565C32.4687 32.4565 31.1687 32.294 30.0312 31.969C28.8937 31.644 27.9187 31.1565 27.1062 30.5877C26.375 30.019 25.725 29.2877 25.3187 28.394C24.9125 27.5002 24.75 26.5252 24.75 25.469C24.75 24.4127 24.9125 23.4377 25.4 22.544C25.8875 21.6502 26.5375 20.919 27.2687 20.269C28.0812 19.7002 29.0562 19.1315 30.1125 18.8065C31.1687 18.4815 32.3875 18.319 33.6875 18.319C34.7437 18.319 35.7187 18.319 36.5312 18.4815C37.3437 18.7252 37.3437 18.7252 37.9937 18.969V22.6252C37.425 22.3002 36.8562 22.0565 36.2062 21.894C35.5562 21.6502 34.9062 21.569 34.175 21.569C32.9562 21.569 31.9812 21.9752 31.25 22.544C30.4375 23.194 30.1125 24.169 30.1125 25.3877C30.1125 25.9565 30.1937 26.5252 30.4375 27.0127C30.6812 27.419 31.0062 27.8252 31.4125 28.1502C31.8187 28.4752 32.3062 28.719 32.7937 28.8815C33.3625 29.044 33.85 29.1252 34.5 29.1252C35.15 29.1252 35.8 29.044 36.3687 28.9627C36.9375 28.8815 37.5875 28.719 38.2375 28.394V31.8877ZM45.6312 32.294H40.35V18.5627H45.6312V32.294ZM45.3062 12.0627C45.875 12.5502 46.2 13.2815 46.2 14.2565C46.2 15.1502 45.875 15.8815 45.3062 16.4502C44.6562 17.019 43.8437 17.2627 43.0312 17.2627C42.1375 17.2627 41.325 17.019 40.7562 16.4502C40.1875 15.8815 39.8625 15.1502 39.8625 14.2565C39.8625 13.2815 40.1062 12.6315 40.7562 12.0627C41.4062 11.494 42.1375 11.2502 43.0312 11.2502C43.925 11.2502 44.7375 11.494 45.3062 12.0627Z" fill="black"/>
<path d="M17.8437 24.6565C18.3312 24.4127 18.575 23.9252 18.575 23.2752C18.575 22.0565 17.6812 21.4877 15.8937 21.4877H15.2437V25.144H15.8125C16.7062 25.144 17.3562 24.9815 17.8437 24.6565Z" fill="black"/>
</svg>
