<svg width="57" height="48" viewBox="0 0 57 48" fill="none" xmlns="http://www.w3.org/2000/svg">
<path fill-rule="evenodd" clip-rule="evenodd" d="M39.5 19H41.1364C42.4418 19 43.5 20.0582 43.5 21.3636V30C43.5 38.2843 36.7843 45 28.5 45C20.2157 45 13.5 38.2843 13.5 30V21.3636C13.5 20.0582 14.5582 19 15.8636 19H17.5V15C17.5 8.92487 22.4249 4 28.5 4C34.5751 4 39.5 8.92487 39.5 15V19ZM35.5 19V15C35.5 11.134 32.366 8 28.5 8C24.634 8 21.5 11.134 21.5 15V19H35.5ZM36.6211 26.9965L28.6211 35.9965C28.3467 36.3053 27.957 36.4872 27.5441 36.4994C27.1311 36.5115 26.7315 36.3528 26.4393 36.0607L21.4393 31.0607L23.5607 28.9393L27.4358 32.8145L34.3789 25.0035L36.6211 26.9965Z" fill="black"/>
</svg>
