<svg width="56" height="48" viewBox="0 0 56 48" fill="none" xmlns="http://www.w3.org/2000/svg">
<path d="M28.1754 2C27.0646 2 26.1293 2.87692 26.0708 3.98769C26.0708 5.09846 26.9477 6.03385 28.0585 6.09231C29.1693 6.09231 30.1046 5.21538 30.1631 4.10462C30.1631 2.93538 29.2862 2 28.1754 2Z" fill="black"/>
<path d="M28.76 6.38477H27.4154C27.24 6.38477 27.123 6.50169 27.123 6.67707C27.123 6.85246 27.24 6.96938 27.4154 6.96938H28.76C28.9354 6.96938 29.0523 6.85246 29.0523 6.67707C29.0523 6.50169 28.9354 6.38477 28.76 6.38477Z" fill="black"/>
<path d="M27.591 7.67082C27.591 7.26159 27.8249 7.20312 28.0587 7.20312C28.2926 7.20312 28.5264 7.32005 28.5264 7.67082L28.2926 20.8831C28.2341 20.9416 28.2341 20.9416 28.1757 20.9416C28.1172 20.9416 28.0003 20.9416 27.9418 21C27.8541 21.0293 27.781 21.0731 27.708 21.117C27.6349 21.1608 27.5618 21.2047 27.4741 21.2339L27.591 7.67082Z" fill="black"/>
<path d="M27.3568 28.3657C27.5907 28.3072 27.8245 28.2488 28.0583 28.2488V26.8457C27.8245 26.9042 27.5906 26.9042 27.2983 26.9042L27.3568 28.3657Z" fill="black"/>
<path d="M27.503 36.5799C27.576 36.5506 27.6491 36.5214 27.7076 36.4922C27.766 36.4922 27.8245 36.4922 27.883 36.5506H27.9999V37.9537H27.883C27.8245 37.983 27.7514 38.0122 27.6783 38.0414C27.6053 38.0706 27.5322 38.0999 27.4737 38.1291C27.4153 38.1291 27.4153 38.0706 27.4153 38.0706H27.3568L27.2983 38.0122V36.6676C27.3568 36.6383 27.4299 36.6091 27.503 36.5799Z" fill="black"/>
<path d="M27.2402 39.8831V41.2862L27.3572 41.4031C27.5325 41.2862 27.6495 41.2862 27.8249 41.3447L27.8833 39.6493C27.8249 39.6493 27.7079 39.6493 27.6495 39.5908C27.5325 39.7077 27.4156 39.8247 27.2402 39.8831Z" fill="black"/>
<path d="M27.3864 42.8934C27.4302 42.8641 27.4741 42.8349 27.5325 42.8057C27.5325 42.8641 27.591 42.8641 27.6495 42.8641C27.7079 42.9226 27.7664 42.9226 27.8249 42.9226L27.7664 45.6118C27.7664 45.9626 27.2402 45.9626 27.2402 45.6118V42.981C27.2987 42.9518 27.3425 42.9226 27.3864 42.8934Z" fill="black"/>
<path d="M27.9414 33.2183C27.9197 33.1966 27.8898 33.1829 27.8578 33.1683C27.804 33.1437 27.7443 33.1164 27.7076 33.043C27.6419 33.0758 27.5763 33.0902 27.5002 33.1069C27.4409 33.1199 27.3752 33.1343 27.2983 33.1599V34.7384C27.343 34.7607 27.3791 34.7745 27.41 34.7863C27.4599 34.8053 27.4961 34.8191 27.5322 34.8553C27.6491 34.7968 27.766 34.7968 27.883 34.7968H27.9414L27.9999 33.2183H27.9414Z" fill="black"/>
<path d="M27.4737 31.3477L27.3568 31.2308L27.2983 30.2369L27.9999 30.0615V31.2308H27.9414C27.8245 31.2892 27.6492 31.3477 27.4738 31.4061L27.4737 31.3477Z" fill="black"/>
<path d="M27.4155 23.6889V24.9751C27.5325 24.9458 27.6348 24.9166 27.7371 24.8874C27.8394 24.8582 27.9417 24.8289 28.0586 24.7997H28.1755V23.5135C28.0586 23.5135 28.0001 23.5135 27.8832 23.4551C27.7663 23.572 27.5909 23.6305 27.4155 23.6889Z" fill="black"/>
<path d="M25.146 8.96745C24.8301 9.36689 24.4861 9.80188 25.1354 10.1265C25.3268 10.2222 26.0668 10.2788 26.7138 10.3282C26.8571 10.3392 26.9959 10.3498 27.1231 10.3604V12.5819C26.8892 13.3419 26.5385 14.0434 26.3046 14.3357C26.0123 14.6865 25.72 14.9788 25.2523 14.9204C25.1765 14.8951 25.0898 14.848 25.0063 14.8026C24.8966 14.7431 24.7925 14.6865 24.7262 14.6865C24.5911 14.6865 24.5731 14.706 24.5369 14.745C24.5104 14.7735 24.4742 14.8125 24.3754 14.8619C23.8492 15.0957 23.4985 15.0957 22.9138 14.9788C22.7418 14.9358 22.6015 14.8691 22.4724 14.8077C22.2504 14.7022 22.0618 14.6126 21.8031 14.6865C21.6486 14.7251 21.5083 14.7666 21.3753 14.8059C20.9043 14.945 20.525 15.0571 19.9323 14.9204C19.5231 14.8034 18.6462 14.5111 18.5877 13.985C17.5354 14.8034 15.9569 14.3942 15.2554 13.3419C14.7292 13.5757 13.9108 13.5757 13.3846 13.4004C12.9754 13.225 11.9231 12.6404 11.9815 12.0557C10.8708 11.9388 9.70154 11.1788 9 10.2434C11.745 10.0401 15.4625 8.59912 18.3076 7.49631C18.7344 7.33083 19.1417 7.17297 19.5231 7.02805C20.2397 6.74138 20.8002 6.41567 21.4279 6.05091C21.5683 5.96934 21.712 5.88583 21.8615 5.80036L21.9379 5.75329C22.6576 5.30953 23.1793 4.98783 24.0831 5.15728C24.8431 5.2742 25.72 5.85882 25.8954 6.67728C26.0123 7.2619 25.6615 8.13882 25.3692 8.66497C25.3088 8.76166 25.2284 8.86335 25.146 8.96745Z" fill="black"/>
<path d="M34.2553 5.9757C34.1833 5.93139 34.1134 5.8876 34.045 5.84479C33.3919 5.43571 32.8805 5.11539 32.0337 5.27416C31.2737 5.39108 30.3968 5.91724 30.163 6.7357C30.046 7.32031 30.3383 8.19724 30.6307 8.72339C30.6931 8.83576 30.7742 8.9508 30.8551 9.06566C31.1533 9.48859 31.4497 9.90907 30.806 10.1849C30.5722 10.3019 29.5199 10.3603 28.7599 10.2434L28.8183 12.6403C29.0522 13.3419 29.3445 13.9265 29.5199 14.2188C29.7537 14.5695 30.046 14.9203 30.5137 14.8034C30.6103 14.8034 30.7246 14.7502 30.8273 14.7025C30.9112 14.6634 30.9873 14.628 31.0399 14.628C31.1958 14.628 31.2218 14.654 31.2737 14.706C31.2997 14.7319 31.3322 14.7644 31.3907 14.8034C31.9168 15.0372 32.2676 15.0957 32.8522 14.9788C33.0248 14.9356 33.1575 14.8766 33.2799 14.8222C33.4891 14.7291 33.6678 14.6496 33.963 14.6865C34.1333 14.7291 34.2865 14.7751 34.4316 14.8187C34.884 14.9547 35.2583 15.0673 35.8337 14.9788C36.243 14.9203 37.1783 14.628 37.2368 14.1019C38.2891 14.9788 39.8676 14.628 40.6276 13.5757C41.0953 13.868 41.9722 13.868 42.4983 13.6926C42.966 13.5172 44.0183 12.9911 43.9599 12.4065C45.0707 12.348 46.2983 11.588 46.9999 10.7111C44.1137 10.3904 40.2014 8.70153 37.3626 7.47606C37.0963 7.3611 36.8394 7.25022 36.5937 7.14493C35.7168 6.91108 35.0737 6.50185 34.2553 5.9757Z" fill="black"/>
<path d="M23.3232 18.0183C23.0308 18.1353 22.2124 18.5445 22.8555 19.0122C23.2647 19.3045 23.9078 19.5968 24.7847 19.9476C24.9179 20.0047 25.1007 20.0927 25.331 20.2037C25.8083 20.4337 26.4895 20.7619 27.357 21.1168C27.0054 21.3512 26.2101 21.6639 25.7036 21.863C25.4521 21.9619 25.2718 22.0328 25.2524 22.0522C24.6678 21.8183 24.2585 21.643 24.0247 21.526C23.9399 21.4861 23.8559 21.4471 23.7728 21.4084C22.8816 20.9938 22.0841 20.6228 21.3355 19.7137C20.9262 19.1876 20.8678 18.3691 21.1016 17.7845C21.4758 16.8491 22.3737 16.4001 22.8377 16.1682C22.9537 16.1102 23.0425 16.0657 23.0893 16.0307C23.417 15.8122 23.9488 15.7468 24.3986 15.6915L24.4924 15.6799C24.5508 15.6701 24.6239 15.6555 24.7065 15.639C25.1192 15.5565 25.7688 15.4265 26.0124 15.6214C26.4216 15.9137 25.9539 16.6153 25.7201 16.8491C25.1377 17.3786 24.3156 17.6683 23.5577 17.9353L23.5563 17.9358C23.4778 17.9635 23.4 17.9909 23.3232 18.0183Z" fill="black"/>
<path d="M27.9417 42.2803C27.8833 42.3387 27.8394 42.3972 27.7956 42.4557C27.7517 42.5141 27.7079 42.5726 27.6494 42.631L27.8248 42.8064C28.3918 43.4607 28.2429 43.9847 28.1793 44.2087C28.1577 44.285 28.1459 44.3264 28.1756 44.3264C28.1756 44.3264 28.351 44.2095 28.4679 43.9172C28.5848 43.6249 28.5263 43.0403 28.1756 42.5726C28.1463 42.5434 28.1025 42.4849 28.0587 42.4264C28.0148 42.368 27.971 42.3095 27.9417 42.2803Z" fill="black"/>
<path d="M28.9356 35.8496C29.2279 35.9665 29.5203 36.2004 29.7541 36.6681C29.9552 37.1707 29.6808 37.5005 29.4885 37.7317C29.4571 37.7694 29.4279 37.8045 29.4033 37.8373C29.2279 38.0711 28.9941 38.2465 28.7603 38.4219C28.4919 38.6232 28.2428 38.7859 28.0019 38.9434C27.823 39.0603 27.6485 39.1743 27.4741 39.2988C26.0126 40.0588 26.4803 40.8773 27.2987 41.5788C27.1818 41.7542 27.0064 41.9296 26.9479 41.9881L26.3633 41.4035C26.0126 41.1111 25.6618 40.5265 25.9541 39.9419C26.188 39.4158 26.5972 39.065 27.0064 38.7727C27.4156 38.4219 27.8248 38.1297 28.234 37.8374C28.5848 37.6035 28.9356 37.0773 28.8772 37.0188C28.8382 36.9994 28.7732 36.9604 28.6866 36.9084C28.5134 36.8045 28.2536 36.6486 27.9418 36.4927C28.234 36.3174 28.585 36.0834 28.9356 35.8496Z" fill="black"/>
<path d="M30.1634 29.4189C30.1327 29.4496 29.7638 29.593 29.3441 29.7562C28.9642 29.9039 28.5426 30.0679 28.2926 30.1789C28.4608 30.2126 28.6097 30.2656 28.7504 30.3157C28.8541 30.3526 28.9533 30.388 29.0526 30.4128C29.228 30.4713 29.4034 30.5297 29.4618 30.5882C29.4618 30.6243 29.4395 30.6381 29.4086 30.6572C29.3896 30.669 29.3672 30.6828 29.3449 30.7051C29.208 30.842 29.071 30.9077 28.8506 31.0134C28.7887 31.043 28.7203 31.0759 28.6434 31.1143C28.3511 31.2605 28.0441 31.392 27.7372 31.5236C27.4303 31.6551 27.1234 31.7866 26.8311 31.9328C26.6692 32.0211 26.5111 32.0908 26.3548 32.1598C25.8901 32.3648 25.4415 32.5627 24.9603 33.2189C24.5511 33.7451 24.8434 34.4466 25.1357 34.7389C25.428 35.0313 25.6618 35.2651 25.9541 35.4405C26.0126 35.4697 26.0564 35.4989 26.1003 35.5282C26.1441 35.5574 26.188 35.5866 26.2464 35.6159C26.4218 35.4989 26.5972 35.4113 26.7726 35.3236C26.948 35.2359 27.1234 35.1482 27.2987 35.0313C27.1818 34.9436 27.0503 34.8705 26.9187 34.7974C26.7872 34.7243 26.6557 34.6513 26.5387 34.5636C26.0711 34.2713 25.7203 33.7451 25.8957 33.8036C26.0126 33.6282 26.7726 33.2774 27.2987 33.0436C27.4271 32.9922 27.5582 32.9409 27.691 32.8889C28.1628 32.7042 28.6548 32.5117 29.1111 32.2836C29.4034 32.1666 29.8126 31.9913 30.1634 31.6989C30.1797 31.6826 30.1983 31.6646 30.2186 31.6449C30.4894 31.3823 31.0661 30.8234 30.6311 30.062C30.5726 29.7113 30.3972 29.5359 30.1634 29.4189Z" fill="black"/>
<path d="M30.8648 22.6372C31.0402 22.7103 31.2155 22.7833 31.3909 22.871C31.6247 22.9879 33.2617 23.8064 32.794 24.7418C32.6186 25.3849 32.2094 25.6187 31.6832 25.8526C31.3909 25.9695 31.0401 26.0864 30.7478 26.1449C30.1047 26.3202 29.5201 26.4372 28.8771 26.4956C28.5475 26.5406 28.2218 26.574 27.9029 26.6067C26.9771 26.7017 26.1086 26.7908 25.3694 27.1387C25.194 27.1972 25.0186 27.3141 24.9601 27.3726H25.0186C25.3694 27.6649 25.954 27.9572 26.5386 28.191L27.0647 28.3664C26.9478 28.3956 26.8455 28.4395 26.7432 28.4833C26.6409 28.5272 26.5386 28.571 26.4217 28.6002C26.3632 28.6002 26.2463 28.6002 26.1878 28.6587C25.8371 28.8341 25.4863 29.0095 25.0771 29.0679C24.7263 28.8925 24.434 28.7172 24.0832 28.4249C23.9078 28.2495 23.7324 28.0741 23.6155 27.7233C23.4986 27.431 23.5571 26.9049 23.7324 26.671C24.0832 26.1449 24.434 25.9695 24.7847 25.7941C25.8007 25.2199 26.8834 25.1129 27.8311 25.0192C28.1377 24.9889 28.4302 24.96 28.7017 24.9172C29.2863 24.8587 29.8709 24.7418 30.3971 24.6249C30.5358 24.6249 30.638 24.5883 30.7615 24.544C30.7941 24.5323 30.8281 24.5201 30.8647 24.5079C30.8063 24.4495 30.6894 24.391 30.5724 24.3326C30.263 24.1557 29.9535 24.0457 29.6188 23.9268C29.511 23.8885 29.4002 23.8491 29.2863 23.8064C29.1135 23.7323 28.9407 23.6687 28.7723 23.6067C28.5419 23.5218 28.3197 23.44 28.1171 23.3387C28.4678 23.2218 29.9878 22.6956 30.3386 22.4033C30.514 22.491 30.6894 22.5641 30.8648 22.6372Z" fill="black"/>
<path d="M28.3507 39.0059C28.1753 39.1812 27.883 39.4151 27.766 39.4736C29.1103 40.2883 28.3542 40.9894 27.6138 41.676C27.2916 41.9747 26.9725 42.2707 26.8307 42.572C26.4799 43.0397 26.363 43.6243 26.4799 43.9166C26.5968 44.2089 26.7137 44.3259 26.7722 44.3259C26.8029 44.3259 26.7933 44.2775 26.7762 44.1914C26.7282 43.9494 26.621 43.4094 27.1814 42.8059C27.4857 42.4508 27.922 42.0958 28.4522 41.6644L28.4553 41.6619C28.5353 41.5968 28.6173 41.53 28.7014 41.4612C28.9937 41.2274 29.403 40.5843 29.1691 39.9997C28.9353 39.532 28.643 39.2397 28.3507 39.0059Z" fill="black"/>
<path d="M27.9997 33.0435C28.4089 32.8681 29.3443 32.4004 29.3443 32.4004C29.6366 32.5758 29.9289 32.8096 30.2797 33.1604C30.6305 33.6865 30.3382 34.4465 30.0459 34.6804C29.7535 35.0312 29.4612 35.2065 29.1689 35.3819C28.8335 35.5832 28.498 35.746 28.1736 35.9034C27.9328 36.0203 27.6977 36.1343 27.4735 36.2589C27.0288 36.4368 26.6178 36.6824 26.3952 36.8154C26.3252 36.8572 26.2738 36.8879 26.2459 36.9019C26.1874 36.9604 26.5382 37.545 26.8889 37.7789C27.0643 37.9542 27.1812 38.0712 27.3566 38.1881C27.2397 38.2758 27.1082 38.3489 26.9766 38.4219C26.8451 38.495 26.7135 38.5681 26.5966 38.6558C26.5674 38.6265 26.5235 38.5973 26.4797 38.5681C26.4359 38.5388 26.392 38.5096 26.3628 38.4804C26.2092 38.3652 26.0808 38.2248 25.9445 38.0757C25.8733 37.9978 25.7999 37.9176 25.7197 37.8373C25.6953 37.7886 25.6583 37.7347 25.617 37.6748C25.4601 37.4471 25.2423 37.1308 25.4274 36.6681C25.7226 35.9511 26.2004 35.7818 26.6193 35.6333C26.7811 35.576 26.934 35.5218 27.0643 35.4404C27.2982 35.2942 27.5612 35.1481 27.8243 35.0019C28.0874 34.8558 28.3505 34.7096 28.5843 34.5635C29.1105 34.2712 29.4612 33.745 29.2859 33.8035C29.1689 33.6281 28.5259 33.2773 27.9997 33.0435Z" fill="black"/>
<path d="M31.2153 26.2617C30.8061 26.4371 29.1107 26.7294 28.7015 26.7879C28.7637 26.8057 28.8273 26.8234 28.8916 26.8414C29.2502 26.9417 29.6318 27.0484 29.9292 27.1971C30.1046 27.2556 30.2799 27.3725 30.3384 27.431H30.2799C29.9292 27.7233 29.3446 27.9571 28.7599 28.1909C28.3247 28.3651 27.857 28.4744 27.3569 28.5912C27.1853 28.6313 27.0099 28.6723 26.8307 28.7171C26.6553 28.7756 26.4946 28.8194 26.3338 28.8633C26.173 28.9071 26.0123 28.951 25.8369 29.0094C25.7744 29.0344 25.7013 29.0514 25.621 29.07C25.3251 29.1387 24.931 29.2302 24.6092 29.8279C24.1599 30.6141 24.7356 31.1846 24.989 31.4355L25.0184 31.4648C25.2523 31.6986 25.603 31.874 25.8369 31.9909C26.0707 31.9033 26.3192 31.8156 26.5677 31.7279C26.8161 31.6402 27.0646 31.5525 27.2984 31.4648C27.3276 31.4648 27.3423 31.4502 27.3569 31.4356C27.3715 31.4209 27.3861 31.4063 27.4153 31.4063C27.2156 31.3264 27.0158 31.2192 26.8347 31.122C26.7509 31.077 26.6709 31.0341 26.5969 30.9971C26.4862 30.9307 26.3839 30.881 26.2899 30.8355C26.1358 30.7607 26.0043 30.6968 25.8953 30.5879L25.7784 30.471C25.8953 30.4125 26.0123 30.354 26.1876 30.354C26.439 30.2535 26.7336 30.1962 26.9971 30.1449C27.04 30.1366 27.0821 30.1284 27.123 30.1202C27.356 30.0567 27.5889 30.0008 27.8246 29.9443C28.2396 29.8448 28.6634 29.7431 29.1107 29.594C29.1749 29.5726 29.2386 29.5517 29.3019 29.531C29.9304 29.3247 30.5195 29.1313 31.1569 28.6002C31.3323 28.4248 31.5076 28.2494 31.683 27.8986C31.7999 27.5479 31.7415 27.0802 31.5661 26.8463C31.5245 26.6386 31.4239 26.5194 31.3272 26.4049C31.2879 26.3583 31.2491 26.3124 31.2153 26.2617Z" fill="black"/>
<path d="M31.3142 15.8013C31.7717 15.8582 32.2796 15.9215 32.6772 16.2055C32.7232 16.24 32.81 16.2858 32.9233 16.3457C33.3856 16.5899 34.2892 17.0672 34.6649 17.9593C34.8987 18.6024 34.8402 19.3624 34.3726 19.8886C33.626 20.7347 32.8794 21.0723 32.0607 21.4426C31.9178 21.5072 31.7726 21.5729 31.6249 21.6424C31.4537 21.7066 31.2042 21.81 30.8878 21.941C30.3399 22.168 29.5913 22.4781 28.7018 22.8116C28.4102 22.9088 28.0984 23.0262 27.7664 23.1512C27.2997 23.327 26.793 23.5177 26.2464 23.6886C25.7202 23.8639 25.3695 23.9809 24.9018 24.1563C24.8433 24.2147 24.7264 24.2732 24.6095 24.3316C24.7264 24.3901 24.9017 24.4485 25.0771 24.507C25.4278 24.6239 25.8372 24.7409 26.2464 24.7993C25.5449 25.0332 24.9602 25.4424 24.3756 25.8516L24.2587 25.9686C24.171 25.9393 24.0687 25.8955 23.9664 25.8516C23.8641 25.8078 23.7618 25.7639 23.6741 25.7347C23.0895 25.5009 22.7387 25.2086 22.5633 24.5655C22.3387 23.6108 23.8404 22.8718 24.1663 22.7115C24.1797 22.7049 24.191 22.6993 24.2002 22.6947C24.6679 22.4609 25.2526 22.227 25.6618 22.1101C26.5387 21.8178 27.3572 21.5255 28.0587 21.2332C28.9482 20.8996 29.6733 20.5895 30.204 20.3625C30.5105 20.2315 30.7521 20.1281 30.9233 20.0639C31.8002 19.7132 32.4433 19.4209 32.8526 19.1286C33.4372 18.7193 32.6772 18.2516 32.3849 18.1347C32.3167 18.1104 32.2476 18.086 32.178 18.0614C31.4125 17.7913 30.5774 17.4965 29.9879 16.907C29.7541 16.6732 29.3449 15.9716 29.7541 15.6793C29.9908 15.5373 30.6107 15.6636 31.0243 15.7478C31.1215 15.7676 31.2073 15.7851 31.2741 15.7963C31.2874 15.7979 31.3008 15.7996 31.3142 15.8013Z" fill="black"/>
</svg>
