<svg width="146" height="46" viewBox="0 0 146 46" fill="none" xmlns="http://www.w3.org/2000/svg">
<g clip-path="url(#clip0_5301_1137)">
<path d="M41.9857 17.1909H55.2148V19.6258H50.006V33.3514H47.1509V19.6258H41.9639L41.9857 17.1909ZM54.6482 21.6512H57.0891V23.9137H57.1327C57.2199 23.5905 57.3725 23.2888 57.5904 22.9871C57.8083 22.6855 58.0699 22.4054 58.3968 22.1683C58.7019 21.9098 59.0506 21.7158 59.4429 21.565C59.8134 21.4142 60.2057 21.328 60.598 21.328C60.9031 21.328 61.1211 21.3495 61.2301 21.3495C61.339 21.3711 61.4698 21.3926 61.5788 21.3926V23.8706C61.4044 23.8275 61.2083 23.8059 61.0121 23.7844C60.816 23.7628 60.6416 23.7413 60.4455 23.7413C60.0096 23.7413 59.5955 23.8275 59.2032 23.9998C58.8109 24.1722 58.484 24.4308 58.1789 24.754C57.8955 25.0988 57.6558 25.5082 57.4814 26.0037C57.3071 26.4993 57.2199 27.0811 57.2199 27.7275V33.2867H54.6046L54.6482 21.6512ZM73.5657 33.3514H70.9939V31.7138H70.9503C70.6234 32.3171 70.1439 32.7696 69.5119 33.1359C68.8799 33.5022 68.226 33.6746 67.5722 33.6746C66.0248 33.6746 64.8915 33.3083 64.1941 32.5326C63.4967 31.7784 63.148 30.6149 63.148 29.085V21.6512H65.7633V28.8264C65.7633 29.8607 65.9594 30.5933 66.3735 31.0027C66.7658 31.4337 67.3325 31.6491 68.0517 31.6491C68.5965 31.6491 69.0542 31.5629 69.4247 31.3906C69.7952 31.2182 70.1004 31.0027 70.3183 30.7226C70.558 30.4425 70.7106 30.0977 70.8196 29.7099C70.9285 29.322 70.9721 28.8911 70.9721 28.4386V21.6512H73.5875V33.3514H73.5657ZM78.0117 29.6021C78.0989 30.3563 78.3822 30.8734 78.8835 31.1966C79.3847 31.4983 79.995 31.6491 80.6924 31.6491C80.9321 31.6491 81.2155 31.6276 81.5206 31.5845C81.8257 31.5414 82.1308 31.4768 82.3924 31.369C82.6757 31.2613 82.8936 31.1104 83.068 30.895C83.2423 30.6795 83.3295 30.4209 83.3077 30.0977C83.2859 29.7745 83.177 29.4944 82.9372 29.2789C82.6975 29.0635 82.4142 28.9126 82.0654 28.7618C81.7167 28.6325 81.3026 28.5248 80.845 28.4386C80.3873 28.3524 79.9296 28.2447 79.4501 28.1369C78.9706 28.0292 78.4912 27.8999 78.0335 27.7491C77.5758 27.5982 77.1835 27.4043 76.813 27.1242C76.4643 26.8656 76.1592 26.5424 75.963 26.133C75.7451 25.7236 75.6361 25.2496 75.6361 24.6463C75.6361 23.9998 75.7887 23.4827 76.1156 23.0518C76.4207 22.6208 76.8348 22.2761 77.3143 22.0175C77.7938 21.7589 78.3386 21.565 78.9271 21.4573C79.5155 21.3495 80.0822 21.3064 80.6052 21.3064C81.2155 21.3064 81.8039 21.3711 82.3488 21.5004C82.8936 21.6297 83.4167 21.8236 83.8526 22.1252C84.3103 22.4054 84.6808 22.7932 84.9641 23.2457C85.2692 23.6982 85.4436 24.2584 85.5307 24.9048H82.8065C82.6757 24.28 82.3924 23.8706 81.9565 23.6551C81.4988 23.4396 80.9975 23.3319 80.4091 23.3319C80.2347 23.3319 79.995 23.3534 79.7552 23.375C79.4937 23.4181 79.2758 23.4612 79.036 23.5474C78.8181 23.6336 78.6219 23.7628 78.4694 23.9137C78.3168 24.0645 78.2296 24.28 78.2296 24.5385C78.2296 24.8617 78.3386 25.0988 78.5566 25.2927C78.7745 25.4866 79.0578 25.6374 79.4283 25.7883C79.777 25.9176 80.1911 26.0253 80.6488 26.1115C81.1065 26.1977 81.586 26.3054 82.0654 26.4131C82.5449 26.5209 83.0026 26.6502 83.4603 26.801C83.918 26.9518 84.3321 27.1458 84.6808 27.4259C85.0295 27.6844 85.3346 28.0076 85.5525 28.3955C85.7705 28.7833 85.8795 29.2789 85.8795 29.8392C85.8795 30.5287 85.7269 31.1105 85.4 31.606C85.0731 32.0801 84.659 32.4895 84.1577 32.7911C83.6564 33.0928 83.068 33.3083 82.4577 33.4591C81.8257 33.5884 81.2155 33.6746 80.6052 33.6746C79.8642 33.6746 79.1668 33.5884 78.5348 33.416C77.9027 33.2436 77.3361 32.9851 76.8784 32.6619C76.4207 32.3171 76.0502 31.9077 75.7887 31.3906C75.5271 30.895 75.3746 30.2917 75.3528 29.5806H77.9899V29.6021H78.0117ZM86.6205 21.6512H88.6037V18.1174H91.2191V21.6297H93.5729V23.5474H91.2191V29.7961C91.2191 30.0762 91.2409 30.2917 91.2627 30.5071C91.2844 30.7011 91.3498 30.8734 91.4152 31.0027C91.5024 31.132 91.6332 31.2397 91.7857 31.3044C91.9601 31.369 92.178 31.4121 92.4831 31.4121C92.6575 31.4121 92.8536 31.4121 93.028 31.3906C93.2024 31.369 93.3985 31.3475 93.5729 31.3044V33.3083C93.2895 33.3514 93.0062 33.3729 92.7229 33.3945C92.4396 33.4376 92.178 33.4376 91.8729 33.4376C91.1755 33.4376 90.6306 33.3729 90.2165 33.2436C89.8024 33.1143 89.4755 32.9204 89.2358 32.6834C88.996 32.4248 88.8435 32.1232 88.7563 31.7569C88.6691 31.3906 88.6255 30.9381 88.6037 30.464V23.5689H86.6205V21.6081V21.6512ZM95.4036 21.6512H97.8663V23.2457H97.9099C98.2804 22.5562 98.7817 22.0821 99.4355 21.7805C100.089 21.4788 100.787 21.328 101.571 21.328C102.509 21.328 103.315 21.4788 104.012 21.8236C104.71 22.1468 105.276 22.5777 105.734 23.1595C106.192 23.7197 106.54 24.3877 106.758 25.1419C106.976 25.896 107.107 26.7148 107.107 27.5551C107.107 28.3524 106.998 29.1066 106.802 29.8392C106.584 30.5718 106.279 31.2397 105.865 31.8C105.451 32.3602 104.928 32.8127 104.274 33.1574C103.62 33.5022 102.879 33.6746 102.007 33.6746C101.637 33.6746 101.244 33.6315 100.874 33.5668C100.503 33.5022 100.133 33.3945 99.7842 33.2436C99.4355 33.0928 99.1086 32.8989 98.8253 32.6619C98.5202 32.4248 98.2804 32.1447 98.0843 31.8431H98.0407V37.6824H95.4254V21.6512H95.4036ZM104.535 27.5121C104.535 26.9949 104.47 26.4778 104.317 25.9822C104.187 25.4866 103.969 25.0557 103.685 24.6678C103.402 24.28 103.053 23.9783 102.661 23.7413C102.247 23.5043 101.768 23.3965 101.244 23.3965C100.155 23.3965 99.3266 23.7628 98.7599 24.517C98.2151 25.2711 97.9317 26.2839 97.9317 27.5336C97.9317 28.1369 97.9971 28.6756 98.1497 29.1712C98.3022 29.6668 98.4984 30.0977 98.8035 30.464C99.0868 30.8303 99.4355 31.1104 99.8496 31.3259C100.264 31.5414 100.721 31.6491 101.266 31.6491C101.876 31.6491 102.356 31.5198 102.77 31.2828C103.184 31.0458 103.511 30.7226 103.794 30.3563C104.056 29.9684 104.252 29.5375 104.361 29.0419C104.47 28.5248 104.535 28.0292 104.535 27.5121ZM109.134 17.1909H111.749V19.6258H109.134V17.1909ZM109.134 21.6512H111.749V33.3514H109.134V21.6512ZM114.081 17.1909H116.697V33.3514H114.081V17.1909ZM124.673 33.6746C123.736 33.6746 122.886 33.5237 122.145 33.2005C121.404 32.8773 120.794 32.4679 120.271 31.9292C119.77 31.3906 119.377 30.7226 119.116 29.9684C118.854 29.2143 118.702 28.3739 118.702 27.4905C118.702 26.6071 118.832 25.7883 119.116 25.0341C119.377 24.28 119.77 23.6335 120.271 23.0733C120.772 22.5346 121.404 22.1037 122.145 21.802C122.886 21.5004 123.736 21.328 124.673 21.328C125.611 21.328 126.461 21.4788 127.202 21.802C127.943 22.1037 128.553 22.5346 129.076 23.0733C129.577 23.612 129.969 24.28 130.231 25.0341C130.492 25.7883 130.645 26.6071 130.645 27.4905C130.645 28.3955 130.514 29.2143 130.231 29.9684C129.948 30.7226 129.577 31.369 129.076 31.9292C128.575 32.4679 127.943 32.8989 127.202 33.2005C126.461 33.5022 125.632 33.6746 124.673 33.6746ZM124.673 31.6276C125.24 31.6276 125.763 31.4983 126.177 31.2613C126.613 31.0243 126.94 30.7011 127.223 30.3132C127.507 29.9254 127.703 29.4729 127.834 28.9988C127.964 28.5032 128.03 28.0076 128.03 27.4905C128.03 26.9949 127.964 26.4993 127.834 26.0037C127.703 25.5082 127.507 25.0772 127.223 24.6894C126.94 24.3015 126.591 23.9999 126.177 23.7628C125.741 23.5258 125.24 23.3965 124.673 23.3965C124.107 23.3965 123.584 23.5258 123.17 23.7628C122.734 23.9999 122.407 24.3231 122.123 24.6894C121.84 25.0772 121.644 25.5082 121.513 26.0037C121.382 26.4993 121.317 26.9949 121.317 27.4905C121.317 28.0076 121.382 28.5032 121.513 28.9988C121.644 29.4944 121.84 29.9254 122.123 30.3132C122.407 30.7011 122.755 31.0243 123.17 31.2613C123.605 31.5198 124.107 31.6276 124.673 31.6276ZM131.43 21.6512H133.413V18.1174H136.028V21.6297H138.382V23.5474H136.028V29.7961C136.028 30.0762 136.05 30.2917 136.072 30.5071C136.094 30.7011 136.159 30.8734 136.224 31.0027C136.312 31.132 136.442 31.2397 136.595 31.3044C136.769 31.369 136.987 31.4121 137.292 31.4121C137.467 31.4121 137.663 31.4121 137.837 31.3906C138.012 31.369 138.208 31.3475 138.382 31.3044V33.3083C138.099 33.3514 137.815 33.3729 137.532 33.3945C137.249 33.4376 136.987 33.4376 136.682 33.4376C135.985 33.4376 135.44 33.3729 135.026 33.2436C134.612 33.1143 134.285 32.9204 134.045 32.6834C133.805 32.4248 133.653 32.1232 133.565 31.7569C133.478 31.3906 133.435 30.9381 133.413 30.464V23.5689H131.43V21.6081V21.6512Z" fill="black"/>
<path d="M41.9857 17.1909H55.2148V19.6258H50.006V33.3514H47.1509V19.6258H41.9639L41.9857 17.1909ZM54.6482 21.6512H57.0891V23.9137H57.1327C57.2199 23.5905 57.3725 23.2888 57.5904 22.9871C57.8083 22.6855 58.0699 22.4054 58.3968 22.1683C58.7019 21.9098 59.0506 21.7158 59.4429 21.565C59.8134 21.4142 60.2057 21.328 60.598 21.328C60.9031 21.328 61.1211 21.3495 61.2301 21.3495C61.339 21.3711 61.4698 21.3926 61.5788 21.3926V23.8706C61.4044 23.8275 61.2083 23.8059 61.0121 23.7844C60.816 23.7628 60.6416 23.7413 60.4455 23.7413C60.0096 23.7413 59.5955 23.8275 59.2032 23.9998C58.8109 24.1722 58.484 24.4308 58.1789 24.754C57.8955 25.0988 57.6558 25.5082 57.4814 26.0037C57.3071 26.4993 57.2199 27.0811 57.2199 27.7275V33.2867H54.6046L54.6482 21.6512ZM73.5657 33.3514H70.9939V31.7138H70.9503C70.6234 32.3171 70.1439 32.7696 69.5119 33.1359C68.8799 33.5022 68.226 33.6746 67.5722 33.6746C66.0248 33.6746 64.8915 33.3083 64.1941 32.5326C63.4967 31.7784 63.148 30.6149 63.148 29.085V21.6512H65.7633V28.8264C65.7633 29.8607 65.9594 30.5933 66.3735 31.0027C66.7658 31.4337 67.3325 31.6491 68.0517 31.6491C68.5965 31.6491 69.0542 31.5629 69.4247 31.3906C69.7952 31.2182 70.1004 31.0027 70.3183 30.7226C70.558 30.4425 70.7106 30.0977 70.8196 29.7099C70.9285 29.322 70.9721 28.8911 70.9721 28.4386V21.6512H73.5875V33.3514H73.5657ZM78.0117 29.6021C78.0989 30.3563 78.3822 30.8734 78.8835 31.1966C79.3847 31.4983 79.995 31.6491 80.6924 31.6491C80.9321 31.6491 81.2155 31.6276 81.5206 31.5845C81.8257 31.5414 82.1308 31.4768 82.3924 31.369C82.6757 31.2613 82.8936 31.1104 83.068 30.895C83.2423 30.6795 83.3295 30.4209 83.3077 30.0977C83.2859 29.7745 83.177 29.4944 82.9372 29.2789C82.6975 29.0635 82.4142 28.9126 82.0654 28.7618C81.7167 28.6325 81.3026 28.5248 80.845 28.4386C80.3873 28.3524 79.9296 28.2447 79.4501 28.1369C78.9706 28.0292 78.4912 27.8999 78.0335 27.7491C77.5758 27.5982 77.1835 27.4043 76.813 27.1242C76.4643 26.8656 76.1592 26.5424 75.963 26.133C75.7451 25.7236 75.6361 25.2496 75.6361 24.6463C75.6361 23.9998 75.7887 23.4827 76.1156 23.0518C76.4207 22.6208 76.8348 22.2761 77.3143 22.0175C77.7938 21.7589 78.3386 21.565 78.9271 21.4573C79.5155 21.3495 80.0822 21.3064 80.6052 21.3064C81.2155 21.3064 81.8039 21.3711 82.3488 21.5004C82.8936 21.6297 83.4167 21.8236 83.8526 22.1252C84.3103 22.4054 84.6808 22.7932 84.9641 23.2457C85.2692 23.6982 85.4436 24.2584 85.5307 24.9048H82.8065C82.6757 24.28 82.3924 23.8706 81.9565 23.6551C81.4988 23.4396 80.9975 23.3319 80.4091 23.3319C80.2347 23.3319 79.995 23.3534 79.7552 23.375C79.4937 23.4181 79.2758 23.4612 79.036 23.5474C78.8181 23.6336 78.6219 23.7628 78.4694 23.9137C78.3168 24.0645 78.2296 24.28 78.2296 24.5385C78.2296 24.8617 78.3386 25.0988 78.5566 25.2927C78.7745 25.4866 79.0578 25.6374 79.4283 25.7883C79.777 25.9176 80.1911 26.0253 80.6488 26.1115C81.1065 26.1977 81.586 26.3054 82.0654 26.4131C82.5449 26.5209 83.0026 26.6502 83.4603 26.801C83.918 26.9518 84.3321 27.1458 84.6808 27.4259C85.0295 27.6844 85.3346 28.0076 85.5525 28.3955C85.7705 28.7833 85.8795 29.2789 85.8795 29.8392C85.8795 30.5287 85.7269 31.1105 85.4 31.606C85.0731 32.0801 84.659 32.4895 84.1577 32.7911C83.6564 33.0928 83.068 33.3083 82.4577 33.4591C81.8257 33.5884 81.2155 33.6746 80.6052 33.6746C79.8642 33.6746 79.1668 33.5884 78.5348 33.416C77.9027 33.2436 77.3361 32.9851 76.8784 32.6619C76.4207 32.3171 76.0502 31.9077 75.7887 31.3906C75.5271 30.895 75.3746 30.2917 75.3528 29.5806H77.9899V29.6021H78.0117ZM86.6205 21.6512H88.6037V18.1174H91.2191V21.6297H93.5729V23.5474H91.2191V29.7961C91.2191 30.0762 91.2409 30.2917 91.2627 30.5071C91.2844 30.7011 91.3498 30.8734 91.4152 31.0027C91.5024 31.132 91.6332 31.2397 91.7857 31.3044C91.9601 31.369 92.178 31.4121 92.4831 31.4121C92.6575 31.4121 92.8536 31.4121 93.028 31.3906C93.2024 31.369 93.3985 31.3475 93.5729 31.3044V33.3083C93.2895 33.3514 93.0062 33.3729 92.7229 33.3945C92.4396 33.4376 92.178 33.4376 91.8729 33.4376C91.1755 33.4376 90.6306 33.3729 90.2165 33.2436C89.8024 33.1143 89.4755 32.9204 89.2358 32.6834C88.996 32.4248 88.8435 32.1232 88.7563 31.7569C88.6691 31.3906 88.6255 30.9381 88.6037 30.464V23.5689H86.6205V21.6081V21.6512ZM95.4036 21.6512H97.8663V23.2457H97.9099C98.2804 22.5562 98.7817 22.0821 99.4355 21.7805C100.089 21.4788 100.787 21.328 101.571 21.328C102.509 21.328 103.315 21.4788 104.012 21.8236C104.71 22.1468 105.276 22.5777 105.734 23.1595C106.192 23.7197 106.54 24.3877 106.758 25.1419C106.976 25.896 107.107 26.7148 107.107 27.5551C107.107 28.3524 106.998 29.1066 106.802 29.8392C106.584 30.5718 106.279 31.2397 105.865 31.8C105.451 32.3602 104.928 32.8127 104.274 33.1574C103.62 33.5022 102.879 33.6746 102.007 33.6746C101.637 33.6746 101.244 33.6315 100.874 33.5668C100.503 33.5022 100.133 33.3945 99.7842 33.2436C99.4355 33.0928 99.1086 32.8989 98.8253 32.6619C98.5202 32.4248 98.2804 32.1447 98.0843 31.8431H98.0407V37.6824H95.4254V21.6512H95.4036ZM104.535 27.5121C104.535 26.9949 104.47 26.4778 104.317 25.9822C104.187 25.4866 103.969 25.0557 103.685 24.6678C103.402 24.28 103.053 23.9783 102.661 23.7413C102.247 23.5043 101.768 23.3965 101.244 23.3965C100.155 23.3965 99.3266 23.7628 98.7599 24.517C98.2151 25.2711 97.9317 26.2839 97.9317 27.5336C97.9317 28.1369 97.9971 28.6756 98.1497 29.1712C98.3022 29.6668 98.4984 30.0977 98.8035 30.464C99.0868 30.8303 99.4355 31.1104 99.8496 31.3259C100.264 31.5414 100.721 31.6491 101.266 31.6491C101.876 31.6491 102.356 31.5198 102.77 31.2828C103.184 31.0458 103.511 30.7226 103.794 30.3563C104.056 29.9684 104.252 29.5375 104.361 29.0419C104.47 28.5248 104.535 28.0292 104.535 27.5121ZM109.134 17.1909H111.749V19.6258H109.134V17.1909ZM109.134 21.6512H111.749V33.3514H109.134V21.6512ZM114.081 17.1909H116.697V33.3514H114.081V17.1909ZM124.673 33.6746C123.736 33.6746 122.886 33.5237 122.145 33.2005C121.404 32.8773 120.794 32.4679 120.271 31.9292C119.77 31.3906 119.377 30.7226 119.116 29.9684C118.854 29.2143 118.702 28.3739 118.702 27.4905C118.702 26.6071 118.832 25.7883 119.116 25.0341C119.377 24.28 119.77 23.6335 120.271 23.0733C120.772 22.5346 121.404 22.1037 122.145 21.802C122.886 21.5004 123.736 21.328 124.673 21.328C125.611 21.328 126.461 21.4788 127.202 21.802C127.943 22.1037 128.553 22.5346 129.076 23.0733C129.577 23.612 129.969 24.28 130.231 25.0341C130.492 25.7883 130.645 26.6071 130.645 27.4905C130.645 28.3955 130.514 29.2143 130.231 29.9684C129.948 30.7226 129.577 31.369 129.076 31.9292C128.575 32.4679 127.943 32.8989 127.202 33.2005C126.461 33.5022 125.632 33.6746 124.673 33.6746ZM124.673 31.6276C125.24 31.6276 125.763 31.4983 126.177 31.2613C126.613 31.0243 126.94 30.7011 127.223 30.3132C127.507 29.9254 127.703 29.4729 127.834 28.9988C127.964 28.5032 128.03 28.0076 128.03 27.4905C128.03 26.9949 127.964 26.4993 127.834 26.0037C127.703 25.5082 127.507 25.0772 127.223 24.6894C126.94 24.3015 126.591 23.9999 126.177 23.7628C125.741 23.5258 125.24 23.3965 124.673 23.3965C124.107 23.3965 123.584 23.5258 123.17 23.7628C122.734 23.9999 122.407 24.3231 122.123 24.6894C121.84 25.0772 121.644 25.5082 121.513 26.0037C121.382 26.4993 121.317 26.9949 121.317 27.4905C121.317 28.0076 121.382 28.5032 121.513 28.9988C121.644 29.4944 121.84 29.9254 122.123 30.3132C122.407 30.7011 122.755 31.0243 123.17 31.2613C123.605 31.5198 124.107 31.6276 124.673 31.6276ZM131.43 21.6512H133.413V18.1174H136.028V21.6297H138.382V23.5474H136.028V29.7961C136.028 30.0762 136.05 30.2917 136.072 30.5071C136.094 30.7011 136.159 30.8734 136.224 31.0027C136.312 31.132 136.442 31.2397 136.595 31.3044C136.769 31.369 136.987 31.4121 137.292 31.4121C137.467 31.4121 137.663 31.4121 137.837 31.3906C138.012 31.369 138.208 31.3475 138.382 31.3044V33.3083C138.099 33.3514 137.815 33.3729 137.532 33.3945C137.249 33.4376 136.987 33.4376 136.682 33.4376C135.985 33.4376 135.44 33.3729 135.026 33.2436C134.612 33.1143 134.285 32.9204 134.045 32.6834C133.805 32.4248 133.653 32.1232 133.565 31.7569C133.478 31.3906 133.435 30.9381 133.413 30.464V23.5689H131.43V21.6081V21.6512Z" fill="#044D80"/>
<path d="M38.9356 17.191H26.9706L23.2873 5.94336L19.5823 17.191L7.61719 17.1695L17.2939 24.1293L13.5888 35.3769L23.2655 28.4172L32.9422 35.3769L29.259 24.1293L38.9356 17.191Z" fill="#00B67A"/>
<path d="M30.086 26.672L29.2578 24.1294L23.2861 28.4173L30.086 26.672Z" fill="#005128"/>
<g style="mix-blend-mode:color">
<rect y="0.5" width="146" height="45" fill="#FEF1AB"/>
</g>
</g>
<defs>
<clipPath id="clip0_5301_1137">
<rect width="146" height="45" fill="white" transform="translate(0 0.5)"/>
</clipPath>
</defs>
</svg>
