<svg width="24" height="24" viewBox="0 0 24 24" fill="none" xmlns="http://www.w3.org/2000/svg">
<path d="M7.54752 22C16.6042 22 21.5578 14.3047 21.5578 7.63144C21.5578 7.41287 21.5578 7.19529 21.5434 6.97869C22.507 6.26381 23.3389 5.37867 24 4.3647C23.1014 4.77329 22.148 5.04112 21.1718 5.15923C22.1998 4.52818 22.9692 3.53552 23.3366 2.36606C22.3701 2.95434 21.3126 3.36889 20.2099 3.59182C19.4675 2.78221 18.4856 2.24611 17.4162 2.06647C16.3468 1.88683 15.2494 2.07368 14.294 2.5981C13.3385 3.12251 12.5782 3.95526 12.1307 4.96748C11.6833 5.9797 11.5735 7.11495 11.8186 8.19756C9.86089 8.09685 7.94576 7.57507 6.19745 6.66609C4.44915 5.75712 2.90676 4.48127 1.6704 2.92134C1.04073 4.03306 0.847872 5.34911 1.1311 6.60154C1.41433 7.85397 2.15234 8.9486 3.19488 9.66257C2.41123 9.63902 1.64465 9.42221 0.96 9.03049V9.09449C0.960311 10.2604 1.35385 11.3903 2.07387 12.2926C2.79389 13.1949 3.79606 13.8139 4.9104 14.0448C4.18548 14.2476 3.42487 14.2772 2.68704 14.1315C3.00181 15.1348 3.61443 16.0122 4.43924 16.641C5.26405 17.2698 6.25983 17.6185 7.28736 17.6384C6.26644 18.4614 5.09731 19.0699 3.84687 19.4291C2.59643 19.7883 1.28921 19.891 0 19.7316C2.25183 21.2136 4.87192 21.9997 7.54752 21.9961" fill="#0A0B0B"/>
</svg>
